<svg version="1.1" xmlns="http://www.w3.org/2000/svg" xmlns:xlink="http://www.w3.org/1999/xlink" width="73.69521" height="24.00381" viewBox="0,0,73.69521,24.00381"><g transform="translate(-203.29526,-167.99811)"><g data-paper-data="{&quot;isPaintingLayer&quot;:true}" fill-rule="nonzero" stroke="#000000" stroke-width="1.5" stroke-linecap="butt" stroke-linejoin="round" stroke-miterlimit="10" stroke-dasharray="" stroke-dashoffset="0" style="mix-blend-mode: normal"><path d="M239.99999,172.42624c0.9543,-2.16994 3.01389,-3.67813 5.40686,-3.67813c3.29902,0 5.97647,2.85796 5.97647,6.37938c0,6.93518 -7.02175,9.08567 -11.38333,16.12443c-4.6133,-7.08234 -11.38329,-8.9606 -11.38329,-16.12443c0,-3.52142 2.67746,-6.37938 5.97647,-6.37938c2.39299,0 4.45258,1.50819 5.40682,3.67813z" fill="#000000"/><path d="M215.42856,172.42624c0.9543,-2.16995 3.01389,-3.67813 5.40686,-3.67813c3.29901,0 5.97648,2.85796 5.97648,6.37938c0,6.93518 -7.02176,9.08567 -11.38334,16.12443c-4.6133,-7.08234 -11.3833,-8.9606 -11.3833,-16.12443c0,-3.52142 2.67746,-6.37938 5.97647,-6.37938c2.39299,0 4.45258,1.50819 5.40682,3.67813z" fill="#ff0000"/><path d="M264.85713,172.42624c0.9543,-2.16995 3.01389,-3.67813 5.40686,-3.67813c3.29902,0 5.97648,2.85796 5.97648,6.37938c0,6.93518 -7.02176,9.08567 -11.38334,16.12443c-4.6133,-7.08234 -11.3833,-8.9606 -11.3833,-16.12443c0,-3.52142 2.67746,-6.37938 5.97647,-6.37938c2.39299,0 4.45258,1.50819 5.40682,3.67813z" fill="#000000"/></g></g></svg>