<svg version="1.1" xmlns="http://www.w3.org/2000/svg" xmlns:xlink="http://www.w3.org/1999/xlink" width="27.39155" height="24.67057" viewBox="0,0,27.39155,24.67057"><g transform="translate(-226.30422,-167.66472)"><g data-paper-data="{&quot;isPaintingLayer&quot;:true}" fill-rule="nonzero" stroke="none" stroke-width="1" stroke-linecap="butt" stroke-linejoin="miter" stroke-miterlimit="10" stroke-dasharray="" stroke-dashoffset="0" style="mix-blend-mode: normal"><g data-paper-data="{&quot;index&quot;:null}"><path d="M234.89549,179.17021l-2.77181,-0.01832l0.41368,-2.07268l0.90096,-2.80146l0.69558,-1.37378l1.94339,-0.16707l1.00362,0.09207l-0.885,1.47892l-0.98401,2.93773c0,0 -0.35883,1.6716 -0.35018,1.72036z" data-paper-data="{&quot;origPos&quot;:null}" fill="#897ab8"/><path d="M234.63454,181.7288l-0.09043,0.69956l0.13081,1.29678l0.28601,1.32415l0.40697,1.00739l0.33969,0.73902l0.42642,0.51104l-2.8323,-0.07621l-0.8145,-1.43811l-0.45263,-2.2309l-0.21666,-1.93498l0.16027,-0.88866l2.67799,0.46848l-0.02167,0.52244" data-paper-data="{&quot;origPos&quot;:null}" fill="#897ab8"/><path d="M236.23339,187.36836l-0.56594,-0.70745l-0.55498,-1.40117l-0.56413,-1.87389l0.05539,-1.60737l0.04295,-0.46815l2.6907,0.32997l1.4728,0.13511l1.06743,-0.3057l0.50126,-0.45937l0.17133,-0.48244l-0.40998,-0.64061l-0.48097,-0.34572l-1.21456,-0.22939l-1.49437,-0.04521l-2.1045,-0.12758l0.04651,-0.50702l0.45857,-1.98979l0.95897,-2.5733l0.69376,-0.97207l0.41849,-0.26302l2.82874,0.11527l4.3322,0.63336l2.61502,0.58071l2.56134,1.16582l1.20354,0.77888l0.90852,0.69947l0.79573,1.21355l-0.40356,0.33878l-0.32486,0.7955l-0.35864,1.54526l0.10471,1.43845l0.30152,1.15507l0.28606,0.43268l-1.14385,1.03562l-1.61935,1.03122l-2.07773,0.72712l-1.84785,0.36978l-1.90805,0.19027l-1.90018,0.10084l-2.42748,0.06157l-3.11456,0.12492" data-paper-data="{&quot;origPos&quot;:null}" fill="#c1b4d8"/><path d="M252.10908,183.29247l-0.34715,-0.8008l-0.10343,-1.54772l0.13038,-1.42126l0.47476,-1.16246l0.38621,-0.19738l0.24318,0.02231l0.44227,0.91069c0,0 0.15017,1.22908 0.11067,1.27797c-0.03947,0.04871 -0.15264,1.66391 -0.15264,1.66391l-0.48257,1.0569l-0.42068,0.57317z" data-paper-data="{&quot;origPos&quot;:null}" fill="#ef463c"/><path d="M234.13392,172.90398l-0.25539,-0.84506l-0.73763,-0.55708l-0.94159,-0.24357l-1.06816,-0.01064l-2.13469,0.15372l-0.94968,0.03523l-0.08841,-0.18298l0.27039,-0.27223l0.84256,-0.58698l1.34885,-0.56661l1.78199,-0.89412l2.25836,-0.73664l2.30717,-0.31276l1.96557,-0.02939l1.06167,0.27226l0.96678,0.35074l0.83239,0.67061l0.41499,0.8247l0.19747,1.36397l-0.57524,1.80003l-3.70191,-0.3396l-2.78421,-0.02803l-1.01129,0.13442" data-paper-data="{&quot;origPos&quot;:null}" fill="#ef463c"/><path d="M240.31029,181.23127l-0.51675,0.28482l-0.80758,0.20546l-1.60537,-0.07727l-2.12014,-0.38668l-2.44882,-0.43452l-3.24199,-0.57712l-2.47725,-0.69915l-0.29053,-0.27136l1.64181,-0.12911l2.34956,-0.01165l1.86925,0.06664l2.29096,0.05279l1.97657,0.04165l1.438,-0.00811l0.85798,0.20106l0.62701,0.23239l0.44655,0.48241l0.23395,0.50649l-0.22321,0.52128" data-paper-data="{&quot;origPos&quot;:null}" fill="#ef463c"/><path d="M240.13772,187.31587l0.52325,0.86947l-0.11076,1.30069l-0.4808,1.24944l-1.13805,1.0491l-1.07005,0.28641l-1.63225,0.02513l-1.86899,-0.45118l-2.6808,-0.96253l-2.21149,-1.11185l-0.87809,-0.55245l-0.16582,-0.29492l1.54674,0.14189l0.99079,0.09089l0.89437,-0.19749l0.76183,-0.47204l0.41273,-0.48655l0.25154,-0.64101l1.37316,0.12597l1.86908,0.0666l1.5437,-0.01574l2.06991,-0.01982" data-paper-data="{&quot;origPos&quot;:null}" fill="#ef463c"/><path d="M236.53095,192.29113c-0.19652,-0.01383 -0.38793,-0.05483 -0.58416,-0.07179c-0.09691,-0.00837 -0.18589,-0.0307 -0.27953,-0.05173c-0.21953,-0.04919 -0.4278,-0.10662 -0.64806,-0.14609c-0.27946,-0.0505 -0.54283,-0.17897 -0.81716,-0.25104c-0.2574,-0.06774 -0.49164,-0.14925 -0.74194,-0.24101c-0.06112,-0.02241 -0.12537,-0.03584 -0.18717,-0.05656c-0.14012,-0.04681 -0.28138,-0.09075 -0.41892,-0.1445c-0.13517,-0.05302 -0.26499,-0.1204 -0.39991,-0.17428c-0.0721,-0.02884 -0.15317,-0.03609 -0.22523,-0.06529c-0.13974,-0.05659 -0.27231,-0.13228 -0.41454,-0.18069c-0.25905,-0.08801 -0.50233,-0.20659 -0.74715,-0.32725c-0.26929,-0.1327 -0.55278,-0.2366 -0.82983,-0.35339c-0.01553,-0.00631 -0.02997,-0.01481 -0.04384,-0.02398c-0.12139,-0.08097 -0.24055,-0.16542 -0.36461,-0.24209c-0.07224,-0.04461 -0.16415,-0.06338 -0.22604,-0.11771c-0.12265,-0.10735 -0.26155,-0.16175 -0.41321,-0.21609c-0.13917,-0.04971 -0.25663,-0.16393 -0.33875,-0.30291c-0.02305,-0.03887 -0.09408,-0.04678 -0.13831,-0.07606c-0.17833,-0.11859 -0.35465,-0.24013 -0.53235,-0.35987c-0.04502,-0.03022 -0.0946,-0.05453 -0.13667,-0.08832c-0.02657,-0.02135 -0.04309,-0.0549 -0.0632,-0.08369c-0.007,-0.00974 -0.00814,-0.02771 -0.01673,-0.03147c-0.13077,-0.057 -0.26005,-0.11874 -0.39487,-0.16419c-0.04856,-0.01652 -0.0998,0.0003 -0.08981,-0.08016c0.00267,-0.02322 -0.02539,-0.05695 -0.04768,-0.07544c-0.07673,-0.0641 -0.08477,-0.12733 -0.01283,-0.19986c0.06404,-0.06448 0.16979,-0.06301 0.23452,-0.01121c0.04909,0.03934 0.11316,0.06219 0.1732,0.08504c0.05735,0.02171 0.12,0.02956 0.17712,0.05161c0.08336,0.03215 0.16158,0.07817 0.24597,0.10657c0.23839,0.08017 0.47756,0.15969 0.71927,0.22843c0.09877,0.02814 0.20538,0.02986 0.30874,0.04022c0.16855,0.01738 0.33732,0.03426 0.50614,0.04679c0.15266,0.01119 0.30569,0.02207 0.45849,0.02211c0.20494,0.00025 0.41016,-0.00439 0.61473,-0.01714c0.28869,-0.01779 0.57539,-0.05014 0.84649,-0.16407c0.07118,-0.02987 0.15337,-0.03302 0.22533,-0.06177c0.05907,-0.02364 0.1138,-0.06307 0.16482,-0.10233c0.16799,-0.12917 0.35267,-0.24387 0.4952,-0.39689c0.17827,-0.19176 0.37845,-0.37611 0.46522,-0.64662c-0.02376,-0.02336 -0.04922,-0.04916 -0.07547,-0.07396c-0.04706,-0.04422 -0.07089,-0.08982 -0.01898,-0.14808c0.04665,-0.05262 0.03571,-0.09353 -0.01416,-0.14711c-0.13912,-0.14912 -0.24997,-0.31664 -0.32698,-0.50943c-0.07914,-0.19805 -0.19173,-0.38273 -0.26803,-0.58139c-0.05823,-0.15132 -0.0838,-0.3154 -0.12208,-0.47416c-0.0623,-0.25777 -0.06866,-0.52616 -0.19161,-0.77357c-0.06499,-0.13113 -0.06597,-0.294 -0.09399,-0.44272c-0.03789,-0.20128 -0.07775,-0.4022 -0.10925,-0.60446c-0.02216,-0.14206 -0.02922,-0.28642 -0.04747,-0.429c-0.0113,-0.09047 -0.03689,-0.17965 -0.0452,-0.27039c-0.01873,-0.20422 -0.03353,-0.40916 -0.0445,-0.61409c-0.01029,-0.19295 -0.01951,-0.38634 -0.01771,-0.57959c0.00121,-0.15445 0.0236,-0.30887 0.02888,-0.46365c0.0024,-0.07575 -0.01265,-0.15221 -0.02001,-0.22851c-0.0005,-0.00407 -0.00523,-0.00783 -0.0049,-0.01147c0.00453,-0.05508 0.03036,-0.14777 0.01103,-0.15828c-0.07751,-0.04247 -0.1678,-0.06563 -0.25569,-0.08455c-0.21044,-0.04521 -0.4218,-0.0863 -0.63355,-0.12497c-0.23102,-0.04221 -0.46349,-0.0784 -0.69456,-0.12009c-0.09366,-0.01698 -0.18543,-0.045 -0.27904,-0.06252c-0.41866,-0.07867 -0.83864,-0.15045 -1.25637,-0.23533c-0.14813,-0.03004 -0.29023,-0.08964 -0.4353,-0.13567c-0.26054,-0.08307 -0.51711,-0.18467 -0.78306,-0.24322c-0.26078,-0.05753 -0.51755,-0.11101 -0.74967,-0.24992c-0.06422,-0.03845 -0.14271,-0.05475 -0.20357,-0.09728c-0.04424,-0.031 -0.10825,-0.10619 -0.09693,-0.13037c0.03589,-0.07636 0.09101,-0.17526 0.16078,-0.19756c0.15927,-0.05139 0.33087,-0.06541 0.49841,-0.08855c0.11753,-0.01616 0.23617,-0.02348 0.35459,-0.03205c0.30486,-0.02227 0.60968,-0.05173 0.91519,-0.06202c0.30182,-0.01013 0.6043,0.00309 0.90641,-0.00069c0.31979,-0.00375 0.63951,-0.0124 0.95898,-0.02423c0.24501,-0.00902 0.48991,-0.03978 0.73454,-0.03693c0.37367,0.00416 0.74741,0.02866 1.12106,0.04438c0.01587,0.00058 0.03178,-0.00287 0.04607,-0.00418c0.04768,-0.23175 0.10228,-0.45673 0.13878,-0.68463c0.03308,-0.20788 0.02744,-0.42317 0.07366,-0.62757c0.06458,-0.28603 0.16239,-0.5643 0.24344,-0.84674c0.02997,-0.10349 0.05402,-0.20911 0.0787,-0.31415c0.03315,-0.13997 0.06151,-0.28124 0.09705,-0.42064c0.02933,-0.11563 0.05776,-0.23258 0.10099,-0.34327c0.11197,-0.28572 0.23459,-0.5673 0.3471,-0.85297c0.03768,-0.09581 0.04718,-0.20329 0.08818,-0.29737c0.0882,-0.20195 0.2012,-0.39375 0.28038,-0.59863c0.11612,-0.3004 0.26663,-0.58258 0.40586,-0.87139c0.04949,-0.1026 0.02607,-0.24985 0.00831,-0.37295c-0.02103,-0.14476 -0.04787,-0.29863 -0.11728,-0.42367c-0.06274,-0.11358 -0.18339,-0.19693 -0.28335,-0.28838c-0.19366,-0.17687 -0.43612,-0.27578 -0.67168,-0.37161c-0.20469,-0.08302 -0.43309,-0.10817 -0.65087,-0.15931c-0.31185,-0.07323 -0.62583,-0.04708 -0.94121,-0.03224c-0.20675,0.0099 -0.41501,-0.02286 -0.6229,-0.02529c-0.14428,-0.00151 -0.28876,0.01832 -0.43338,0.02449c-0.09717,0.00421 -0.19485,-0.00335 -0.29188,0.00297c-0.11093,0.00698 -0.22135,0.02206 -0.33166,0.03574c-0.31941,0.03968 -0.63798,0.08921 -0.95821,0.11689c-0.19285,0.01679 -0.38864,0.00252 -0.58298,-0.00272c-0.09341,-0.00243 -0.1866,-0.01501 -0.27969,-0.02495c-0.07539,-0.00815 -0.15166,-0.11368 -0.11968,-0.18182c0.03199,-0.06814 0.08117,-0.13102 0.13346,-0.1859c0.04685,-0.04909 0.10774,-0.08481 0.16313,-0.12578c0.31571,-0.23411 0.61983,-0.48682 0.95164,-0.69599c0.26529,-0.16733 0.56378,-0.28244 0.84863,-0.41857c0.24623,-0.11761 0.49719,-0.22587 0.74045,-0.34937c0.28842,-0.14665 0.56511,-0.31782 0.85774,-0.45483c0.27398,-0.12819 0.56347,-0.22347 0.84407,-0.33811c0.1746,-0.0715 0.34271,-0.16004 0.519,-0.22702c0.17992,-0.06855 0.36624,-0.12096 0.54995,-0.17921c0.31983,-0.10157 0.63692,-0.21322 0.96063,-0.29974c0.29897,-0.08006 0.60558,-0.13104 0.90791,-0.19836c0.19356,-0.04334 0.38333,-0.11432 0.57883,-0.13523c0.3622,-0.03855 0.72725,-0.04741 1.0909,-0.07304c0.12702,-0.00901 0.2535,-0.04625 0.37973,-0.04465c0.21714,0.0026 0.43421,0.02723 0.65138,0.03928c0.09802,0.00567 0.19655,0.00595 0.29477,0.00377c0.42303,-0.00899 0.83834,0.03541 1.24532,0.15922c0.18527,0.05655 0.3803,0.08093 0.5665,0.13477c0.18587,0.05362 0.37181,0.11409 0.5476,0.19359c0.20642,0.09316 0.41491,0.1921 0.59905,0.32172c0.25632,0.18051 0.52968,0.3605 0.72327,0.59915c0.17249,0.21275 0.37337,0.43491 0.41332,0.73774c0.01264,0.09707 0.08758,0.18447 0.11457,0.28145c0.04741,0.17012 0.07614,0.34534 0.11903,0.51696c0.08531,0.34076 0.05192,0.66676 -0.06622,0.99848c-0.13724,0.38544 -0.2399,0.78334 -0.35813,1.17543c-0.01307,0.04326 -0.03004,0.08512 -0.05498,0.15477c0.16735,0.02078 0.3261,0.03622 0.48348,0.0608c0.32615,0.05092 0.65128,0.10736 0.97728,0.15985c0.15489,0.02506 0.31123,0.04185 0.46572,0.06934c0.29741,0.05319 0.59496,0.10674 0.89054,0.1685c0.43418,0.09059 0.86848,0.1819 1.29974,0.28536c0.38245,0.09161 0.76391,0.19032 1.14027,0.30431c0.36345,0.11003 0.72547,0.22988 1.07785,0.37072c0.34763,0.13919 0.68626,0.30207 1.02108,0.47037c0.18992,0.09548 0.3627,0.22492 0.54585,0.33485c0.07814,0.04691 0.14257,0.12318 0.2552,0.10306c0.03686,-0.00678 0.08542,0.04196 0.12619,0.06897c0.15845,0.10452 0.31931,0.20556 0.47295,0.31681c0.21515,0.15609 0.42348,0.32171 0.63722,0.47995c0.07013,0.05212 0.14966,0.09162 0.22192,0.14148c0.10867,0.07474 0.22516,0.14249 0.31905,0.23319c0.12173,0.11759 0.22826,0.25183 0.33444,0.38425c0.18849,0.23505 0.36979,0.47572 0.5579,0.71109c0.06863,0.08576 0.14951,0.16197 0.22152,0.24524c0.01738,0.02032 0.02115,0.05182 0.03244,0.07753c0.07227,0.16434 0.14363,0.32914 0.21807,0.49261c0.07154,0.15711 0.15542,0.30939 0.2175,0.47016c0.08588,0.22213 0.16064,0.44883 0.23059,0.67666c0.02253,0.07297 0.01884,0.15524 0.02094,0.23333c0.0101,0.37656 0.04176,0.75456 0.01929,1.1292c-0.01774,0.29645 -0.05276,0.59991 -0.2004,0.87377c-0.02846,0.0527 0.00102,0.13382 -0.01969,0.19372c-0.07393,0.21254 -0.14545,0.42723 -0.24143,0.63021c-0.08787,0.18501 -0.20727,0.35506 -0.31108,0.53265c-0.0739,0.12643 -0.13923,0.25836 -0.21988,0.38013c-0.04147,0.06272 -0.10771,0.10932 -0.1635,0.16231c-0.02682,0.0252 -0.05768,0.0467 -0.08288,0.07344c-0.0975,0.10291 -0.18485,0.2176 -0.29199,0.3093c-0.22163,0.18918 -0.45654,0.36297 -0.68074,0.54965c-0.22381,0.18637 -0.44997,0.37147 -0.6596,0.57315c-0.24958,0.24018 -0.55972,0.35981 -0.87026,0.48624c-0.07437,0.03029 -0.13455,0.09477 -0.20805,0.12898c-0.12505,0.05803 -0.25679,0.10126 -0.38304,0.15688c-0.14738,0.0649 -0.28756,0.14865 -0.43863,0.20202c-0.20241,0.07139 -0.41314,0.11893 -0.61865,0.182c-0.09257,0.02843 -0.17945,0.07684 -0.27262,0.10381c-0.23092,0.06721 -0.46254,0.13279 -0.69628,0.1887c-0.31748,0.0759 -0.63687,0.14585 -0.95673,0.21156c-0.20642,0.04249 -0.41539,0.07268 -0.62329,0.1084c-0.27511,0.04723 -0.54955,0.10047 -0.82587,0.13972c-0.24312,0.03441 -0.4884,0.05198 -0.73238,0.08055c-0.03788,0.00456 -0.0939,0.01798 -0.1068,0.04412c-0.05474,0.11207 -0.15691,0.12668 -0.25948,0.1458c-0.05273,0.00986 -0.11015,0.00618 -0.15884,0.0255c-0.13205,0.05249 -0.22235,0.01024 -0.2947,-0.1037c-0.01526,-0.02434 -0.05147,-0.04935 -0.07872,-0.05011c-0.26971,-0.00775 -0.54071,-0.02842 -0.8087,-0.00923c-0.25618,0.01816 -0.50847,0.08374 -0.76383,0.11984c-0.12096,0.01708 -0.24468,0.01886 -0.36738,0.01881c-0.22003,-0.00006 -0.44017,-0.00817 -0.6603,-0.00896c-0.04304,-0.00025 -0.08592,0.01698 -0.14716,0.02991c0.09603,0.21256 0.19701,0.40544 0.26976,0.6085c0.04362,0.1218 0.04712,0.259 0.06136,0.39003c0.01821,0.16777 0.05464,0.33932 0.03707,0.50419c-0.02989,0.27801 -0.03616,0.56205 -0.14257,0.82903c-0.10714,0.26919 -0.17928,0.55576 -0.31422,0.80944c-0.08418,0.15821 -0.18979,0.30377 -0.29922,0.44549c-0.08501,0.10984 -0.16146,0.2411 -0.25522,0.34172c-0.22196,0.23851 -0.57461,0.43075 -0.86598,0.56924c-0.12847,0.06104 -0.26228,0.07327 -0.39379,0.12353c-0.14745,0.05612 -0.2928,0.12175 -0.44973,0.14759c-0.1701,0.02816 -0.33612,0.06142 -0.50208,0.09783c-0.18201,0.03985 -0.39117,0.01101 -0.57571,0.00582c-0.19711,-0.00548 -0.38974,-0.01597 -0.5837,-0.02921zM252.57568,178.32828c-0.10907,0.16415 -0.28884,0.27108 -0.34069,0.48529c-0.0648,0.26746 -0.19525,0.51998 -0.25002,0.78872c-0.09276,0.45393 -0.14821,0.9155 -0.21722,1.36043c0.00967,0.03589 0.01819,0.05558 0.01985,0.07552c0.01286,0.16133 0.0355,0.32287 0.03437,0.48396c-0.00207,0.31087 0.04497,0.61257 0.13018,0.91078c0.04643,0.16161 0.0749,0.32841 0.12042,0.49048c0.02268,0.08085 0.06179,0.15831 0.10073,0.23364c0.02558,0.04943 0.06228,0.09394 0.09766,0.13762c0.01949,0.02418 0.05165,0.06268 0.06889,0.05812c0.02865,-0.00716 0.05669,-0.03978 0.07348,-0.06834c0.12422,-0.21127 0.23736,-0.42931 0.36968,-0.63543c0.17403,-0.27146 0.24794,-0.5752 0.31824,-0.88171c0.03974,-0.17385 0.07402,-0.34908 0.11156,-0.52347c0.03117,-0.14523 0.08234,-0.28896 0.09124,-0.43554c0.01654,-0.27381 0.01698,-0.54963 0.0082,-0.82403c-0.00477,-0.15393 -0.02516,-0.31142 -0.06745,-0.45901c-0.05294,-0.18444 -0.16839,-0.35502 -0.19772,-0.5408c-0.03871,-0.24581 -0.17842,-0.43068 -0.29251,-0.63336c-0.04517,-0.0801 -0.12564,-0.1034 -0.17888,-0.02288zM244.28902,173.94918c-0.1528,0.23453 -0.29347,0.47998 -0.41124,0.73348c-0.14333,0.30876 -0.26168,0.6296 -0.38315,0.94805c-0.0825,0.21631 -0.16378,0.43448 -0.22398,0.65755c-0.08542,0.31687 -0.09621,0.65562 -0.30037,0.93515c-0.02584,0.03545 -0.03992,0.08388 -0.04592,0.1283c-0.06267,0.45809 -0.12522,0.91657 -0.18219,1.37554c-0.02621,0.21133 -0.03581,0.4247 -0.0615,0.63605c-0.01268,0.10387 -0.05585,0.20422 -0.06609,0.30813c-0.01924,0.19445 -0.02024,0.39058 -0.03654,0.5853c-0.0314,0.37486 -0.07706,0.74858 -0.10048,1.12399c-0.02667,0.4243 -0.04122,0.84813 -0.03016,1.27502c0.01282,0.50142 0.03249,1.00069 0.1117,1.4958c0.04833,0.30322 0.13119,0.6019 0.1705,0.90607c0.05252,0.40652 0.21281,0.77516 0.35977,1.14991c0.02207,0.05698 0.03424,0.12094 0.0681,0.16974c0.10653,0.15331 0.2194,0.30246 0.33361,0.45034c0.07886,0.10212 0.16714,0.17951 0.31536,0.11891c0.04983,-0.02029 0.11505,-0.00049 0.17302,-0.00462c0.17252,-0.01268 0.34565,-0.02237 0.51708,-0.04411c0.20861,-0.02636 0.41559,-0.06532 0.62358,-0.09648c0.18031,-0.02685 0.36304,-0.04021 0.54114,-0.07726c0.35974,-0.07499 0.71702,-0.16106 1.07506,-0.24393c0.26555,-0.0614 0.53137,-0.12155 0.79553,-0.18869c0.17476,-0.04454 0.34723,-0.09872 0.51996,-0.15167c0.1819,-0.05578 0.36391,-0.11084 0.54302,-0.17423c0.12771,-0.04518 0.25023,-0.10414 0.3754,-0.156c0.14919,-0.0616 0.30009,-0.11916 0.44738,-0.18477c0.09381,-0.0418 0.18227,-0.09599 0.27377,-0.14326c0.08323,-0.04296 0.22006,-0.06716 0.24032,-0.12971c0.04067,-0.12457 0.13523,-0.12518 0.21813,-0.16623c0.11591,-0.05764 0.24055,-0.10554 0.34136,-0.18363c0.38946,-0.30159 0.77367,-0.61046 1.15404,-0.92354c0.13556,-0.11167 0.25476,-0.24321 0.3848,-0.36903c-0.05708,-0.04742 -0.13994,-0.08286 -0.16442,-0.14251c-0.08928,-0.21737 -0.18424,-0.4377 -0.22977,-0.66628c-0.05639,-0.28225 -0.06485,-0.57361 -0.09589,-0.86088c-0.02164,-0.20119 -0.04752,-0.40187 -0.06969,-0.60275c-0.01524,-0.13915 -0.03623,-0.27848 -0.03814,-0.41816c-0.00148,-0.10009 0.02747,-0.20019 0.03774,-0.30077c0.02278,-0.22352 0.03139,-0.4489 0.0671,-0.67018c0.02975,-0.18508 0.09196,-0.36509 0.13605,-0.54816c0.06463,-0.26766 0.1255,-0.53619 0.18961,-0.80371c0.00559,-0.02295 0.0244,-0.04274 0.03732,-0.06345c0.04883,-0.07813 0.10688,-0.15193 0.14411,-0.23516c0.04053,-0.09079 0.04774,-0.19796 0.09582,-0.28317c0.03403,-0.05989 0.08556,-0.12746 0.18712,-0.11832c0.05364,0.00475 0.11134,-0.03827 0.1672,-0.05976c-0.02015,-0.04543 -0.03259,-0.09681 -0.06177,-0.13553c-0.16207,-0.21599 -0.32406,-0.4325 -0.4944,-0.64207c-0.14313,-0.17627 -0.28634,-0.35517 -0.45044,-0.51078c-0.13316,-0.12634 -0.29403,-0.22547 -0.44908,-0.32704c-0.2368,-0.15493 -0.47699,-0.30508 -0.71974,-0.45041c-0.38081,-0.228 -0.76213,-0.45588 -1.14897,-0.6734c-0.25498,-0.14347 -0.51537,-0.27992 -0.78219,-0.39943c-0.27839,-0.12497 -0.56297,-0.23999 -0.85313,-0.33401c-0.46815,-0.15163 -0.94033,-0.2935 -1.41623,-0.41802c-0.3164,-0.08277 -0.64265,-0.12879 -0.96474,-0.18969c-0.12251,-0.02314 -0.24793,-0.0336 -0.36809,-0.06491c-0.20654,-0.05362 -0.38089,-0.0192 -0.49642,0.15838zM234.27924,172.7414c0.07189,-0.02037 0.13048,-0.0486 0.19031,-0.05186c0.31696,-0.01678 0.63438,-0.02932 0.95162,-0.0396c0.35432,-0.01179 0.70883,-0.02583 1.06323,-0.02709c0.27771,-0.00097 0.5557,0.01771 0.83338,0.02463c0.45318,0.01131 0.90632,0.01558 1.35909,0.03138c0.26277,0.00924 0.52504,0.03522 0.7875,0.05352c0.08208,0.00578 0.16444,0.01054 0.24685,0.0167c0.20185,0.01484 0.40441,0.02397 0.60541,0.04627c0.36598,0.0404 0.73067,0.09101 1.09683,0.12949c0.03918,0.00412 0.10499,-0.03395 0.12208,-0.06966c0.05112,-0.10698 0.08582,-0.22178 0.12347,-0.33455c0.08805,-0.26341 0.16612,-0.53055 0.26281,-0.7907c0.09931,-0.2678 0.18788,-0.53502 0.14678,-0.82532c-0.02414,-0.17007 -0.05374,-0.33978 -0.0864,-0.50836c-0.02829,-0.14578 -0.05323,-0.29371 -0.10005,-0.43401c-0.06424,-0.19249 -0.1913,-0.35117 -0.29834,-0.52202c-0.17422,-0.27784 -0.41873,-0.46903 -0.67554,-0.63646c-0.26623,-0.17372 -0.57146,-0.29047 -0.86441,-0.42097c-0.38208,-0.17001 -0.79246,-0.25877 -1.20081,-0.31425c-0.46092,-0.06259 -0.93155,-0.05728 -1.39806,-0.07801c-0.12795,-0.00562 -0.25724,-0.00646 -0.38462,0.00444c-0.27577,0.02371 -0.55036,0.07099 -0.82638,0.08226c-0.44888,0.01799 -0.88915,0.07965 -1.32267,0.19548c-0.267,0.07143 -0.5352,0.13854 -0.80099,0.21393c-0.35046,0.09966 -0.70264,0.19496 -1.04751,0.31193c-0.27805,0.09438 -0.54472,0.22133 -0.81909,0.32727c-0.1091,0.04232 -0.22621,0.06343 -0.33758,0.1003c-0.05433,0.01795 -0.1021,0.05592 -0.15631,0.07441c-0.17188,0.05914 -0.34476,0.10229 -0.50074,0.21313c-0.15689,0.11145 -0.34288,0.18104 -0.52342,0.2583c-0.26365,0.11303 -0.5123,0.26089 -0.76255,0.40526c-0.02101,0.00402 -0.04155,0.01038 -0.06127,0.02099c-0.13607,0.07328 -0.28086,0.10429 -0.42171,0.16647c-0.17739,0.03712 -0.33702,0.12487 -0.49009,0.21356c-0.19743,0.11441 -0.36275,0.28321 -0.554,0.41041c-0.10904,0.07244 -0.16864,0.16096 -0.19915,0.29698c0.18523,-0.01381 0.35926,-0.0178 0.5305,-0.04131c0.39196,-0.054 0.78108,-0.13243 1.17438,-0.17233c0.36521,-0.03702 0.73455,-0.0448 1.10213,-0.05047c0.25506,-0.00409 0.51113,0.00942 0.76557,0.02909c0.24544,0.01884 0.49328,0.0379 0.73312,0.08913c0.46368,0.09908 0.86827,0.32909 1.25123,0.60419c0.11348,0.08148 0.20845,0.17387 0.26468,0.29368c0.0698,0.14923 0.11688,0.30951 0.16739,0.46694c0.0264,0.08242 0.03875,0.16897 0.05335,0.23683zM236.11718,173.95656c0.09445,-0.27787 0.26737,-0.50671 0.45011,-0.72993c0.06764,-0.08271 0.13541,-0.16505 0.22996,-0.27996c-0.86703,-0.03752 -1.69537,-0.02355 -2.52674,0.05597c-0.02721,0.29664 -0.29865,0.49071 -0.39447,0.8026c0.3114,0.02857 0.60711,0.06024 0.90358,0.08166c0.26938,0.01929 0.53972,0.02221 0.80872,0.04357c0.08444,0.00668 0.16858,0.04345 0.24847,0.07704c0.1239,0.0518 0.25128,0.0353 0.28037,-0.05094zM233.11764,176.49127c0.25642,0.002 0.51378,-0.01377 0.76965,-0.00011c0.35482,0.0189 0.7096,0.0518 1.06295,0.09244c0.13562,0.01559 0.19912,-0.01638 0.24469,-0.15067c0.16352,-0.48105 0.34161,-0.9571 0.51292,-1.43551c0.0092,-0.02593 0.01856,-0.05922 0.01004,-0.08257c-0.04495,-0.12456 0.00952,-0.22774 0.06056,-0.33385c0.0463,-0.09659 0.08911,-0.19487 0.13955,-0.30577c-0.22288,-0.02045 -0.42463,-0.04405 -0.62726,-0.05633c-0.24264,-0.01472 -0.48585,-0.01971 -0.72874,-0.02991c-0.02057,-0.00084 -0.04068,-0.00864 -0.06119,-0.01208c-0.06927,-0.01214 -0.13845,-0.02881 -0.20817,-0.03398c-0.10551,-0.00793 -0.21423,0.00573 -0.31714,-0.01352c-0.18826,-0.0353 -0.28948,0.00529 -0.35753,0.17463c-0.08934,0.22215 -0.16893,0.44853 -0.26499,0.66779c-0.17661,0.40233 -0.34432,0.8072 -0.4608,1.23166c-0.02212,0.08094 -0.0432,0.16197 -0.06987,0.26176c0.11665,0.0107 0.20579,0.02535 0.29535,0.02605zM232.6649,179.01476c0.47212,0.01286 0.94435,0.02082 1.41674,0.0288c0.17981,0.0032 0.35972,0.00167 0.53784,0.00244c0.00084,-0.08535 -0.00784,-0.1607 0.00368,-0.23282c0.04049,-0.25045 0.07655,-0.50251 0.13609,-0.74876c0.04915,-0.20377 0.14077,-0.39737 0.19164,-0.60082c0.04624,-0.18532 0.06546,-0.37769 0.08834,-0.56795c0.00247,-0.01921 -0.04929,-0.06177 -0.07939,-0.06558c-0.13999,-0.01775 -0.27946,0.00868 -0.41736,0.01773c-0.30411,0.01988 -0.61309,-0.03122 -0.92004,-0.05483c-0.04014,-0.00316 -0.0795,-0.02253 -0.11939,-0.02268c-0.16881,-0.00113 -0.33831,0.0129 -0.50615,0.00118c-0.16629,-0.01139 -0.26998,0.03317 -0.31678,0.18484c-0.06959,0.22432 -0.14041,0.44871 -0.19374,0.67695c-0.05282,0.22673 -0.08579,0.45827 -0.1251,0.68816c-0.02711,0.15837 -0.04736,0.3179 -0.07655,0.47592c-0.01676,0.09105 -0.02451,0.16596 0.09896,0.17852c0.09416,0.00968 0.18727,0.03659 0.28123,0.03891zM236.19796,181.26904c0.3446,0.05209 0.68937,0.10227 1.03429,0.15299c0.02867,0.0042 0.05801,0.00497 0.08698,0.00762c0.09787,0.00933 0.19718,0.01249 0.2938,0.02958c0.09714,0.01732 0.19044,0.06297 0.28747,0.07012c0.17319,0.01257 0.34792,0.01023 0.52198,0.00554c0.19742,-0.00535 0.39798,-0.00129 0.59092,-0.0361c0.19613,-0.0354 0.38216,-0.12459 0.57726,-0.16971c0.27877,-0.06422 0.5074,-0.18835 0.64686,-0.44739c0.00949,-0.01768 0.0219,-0.04034 0.03849,-0.04758c0.11858,-0.05038 0.12369,-0.12902 0.06888,-0.23189c-0.01655,-0.03145 -0.00591,-0.07668 -0.02171,-0.10877c-0.06516,-0.13288 -0.11541,-0.2798 -0.20815,-0.3907c-0.21299,-0.25427 -0.51564,-0.38758 -0.81609,-0.50107c-0.17577,-0.06655 -0.37557,-0.07332 -0.56612,-0.09499c-0.27974,-0.03215 -0.55702,-0.08909 -0.84308,-0.04672c-0.15614,0.02297 -0.31755,0.01954 -0.47621,0.01442c-0.20507,-0.00637 -0.40977,-0.03041 -0.61483,-0.03889c-0.21186,-0.00875 -0.42437,-0.00497 -0.63633,-0.01269c-0.21809,-0.00776 -0.43614,-0.02164 -0.65404,-0.03514c-0.1105,-0.00699 -0.22041,-0.02074 -0.33083,-0.0286c-0.05391,-0.0039 -0.10818,-0.00362 -0.16243,-0.00196c-0.22319,0.00597 -0.44653,0.02311 -0.66961,0.01805c-0.40085,-0.00931 -0.80126,-0.03116 -1.20187,-0.049c-0.35684,-0.01577 -0.71372,-0.03327 -1.07044,-0.05059c-0.09496,-0.00487 -0.19143,-0.02562 -0.28446,-0.01508c-0.08701,0.0097 -0.1548,0.01398 -0.17434,-0.06097c-0.24065,0.02274 -0.46949,0.05774 -0.69912,0.06312c-0.3752,0.00864 -0.75091,-0.00571 -1.12613,-0.0025c-0.17535,0.00143 -0.35023,0.02633 -0.52564,0.0323c-0.26719,0.00874 -0.53549,0.00059 -0.80219,0.01724c-0.38978,0.02446 -0.77871,0.06457 -1.16827,0.09798l-0.00598,0.03656c0.0471,0.01901 0.09286,0.043 0.14136,0.05603c0.06306,0.01681 0.13055,0.01757 0.19186,0.03791c0.31023,0.10249 0.61303,0.23231 0.92921,0.30805c0.43058,0.10322 0.87095,0.16656 1.30732,0.24666c0.11171,0.02041 0.22437,0.03651 0.33565,0.06003c0.26923,0.0569 0.53807,0.11621 0.80653,0.17603c0.27791,0.06173 0.55473,0.12755 0.83284,0.18702c0.17372,0.03712 0.34874,0.06979 0.52426,0.09694c0.07715,0.01198 0.15808,-0.00021 0.23604,0.00869c0.14722,0.01701 0.29349,0.04251 0.44048,0.06195c0.11602,0.01553 0.23373,0.02038 0.34831,0.0421c0.28974,0.05494 0.57793,0.11901 0.86756,0.17481c0.08599,0.01663 0.17678,0.00958 0.26208,0.02807c0.35698,0.07756 0.71176,0.16542 1.06932,0.24024c0.20403,0.0427 0.41167,0.06909 0.61815,0.10029zM232.49191,182.83714c0.2688,0.01399 0.53805,0.01926 0.80704,0.02941c0.23131,0.00861 0.46308,0.01395 0.69377,0.03142c0.13768,0.01036 0.27327,0.04154 0.41249,0.06376c0.00948,-0.04027 0.01581,-0.0558 0.01618,-0.07151c0.00998,-0.36633 0.0196,-0.73267 0.02855,-1.09907c0.00045,-0.0201 -0.00123,-0.04388 -0.01131,-0.05986c-0.08256,-0.13045 -0.04967,-0.25417 0.02387,-0.38622c-0.06132,-0.0298 -0.11194,-0.05823 -0.16544,-0.07978c-0.11072,-0.04464 -0.21996,-0.09999 -0.33529,-0.12493c-0.20135,-0.04331 -0.40726,-0.06554 -0.61081,-0.09997c-0.18445,-0.03109 -0.36709,-0.08356 -0.5525,-0.09654c-0.23373,-0.01654 -0.46978,-0.00599 -0.70459,0.00259c-0.02986,0.0011 -0.07775,0.05761 -0.08279,0.09338c-0.01303,0.09246 -0.00954,0.188 -0.00733,0.28221c0.01013,0.43903 0.02499,0.87817 0.03141,1.31759c0.00189,0.1129 0.07621,0.13458 0.15549,0.15202c0.09901,0.02167 0.20023,0.04024 0.30127,0.04548zM232.82758,185.06817c0.1422,0.00115 0.28443,-0.00365 0.42628,0.00131c0.13014,0.00476 0.25997,0.02454 0.39006,0.02773c0.1509,0.0037 0.3041,-0.01971 0.45283,-0.00187c0.25817,0.0307 0.51382,0.0811 0.78817,-0.00156c-0.02662,-0.07228 -0.05449,-0.13294 -0.07107,-0.1966c-0.10913,-0.42084 -0.21859,-0.84168 -0.32126,-1.2642c-0.02444,-0.10009 -0.01844,-0.20737 -0.03691,-0.30935c-0.00559,-0.0308 -0.04384,-0.07545 -0.07154,-0.07886c-0.11752,-0.01445 -0.23703,-0.01317 -0.35546,-0.02332c-0.09902,-0.00821 -0.19751,-0.02231 -0.29569,-0.03762c-0.07802,-0.01206 -0.15513,-0.03018 -0.23273,-0.04481c-0.02821,-0.00538 -0.05831,-0.01691 -0.08515,-0.01236c-0.3964,0.06795 -0.79402,0.05371 -1.19154,0.01584c-0.08001,-0.00769 -0.11136,0.02514 -0.10449,0.0972c0.01273,0.13227 0.03411,0.2634 0.04438,0.3958c0.00855,0.10704 -0.00717,0.21743 0.01174,0.32228c0.02774,0.1536 0.07985,0.30296 0.1161,0.45541c0.03603,0.15104 0.05971,0.30514 0.10079,0.45455c0.01888,0.06877 0.05419,0.17055 0.10327,0.18503c0.10326,0.03066 0.22078,0.01466 0.3322,0.01543zM235.25736,185.37859c0.1096,0.39479 0.35037,0.73142 0.50542,1.10571c0.08601,0.20726 0.22311,0.36897 0.37799,0.51989c0.06299,0.06142 0.14394,0.13871 0.2221,0.14534c0.38178,0.03223 0.76533,0.04518 1.14831,0.06036c0.1125,0.00437 0.22575,-0.00519 0.33853,-0.00956c0.25943,-0.00962 0.51873,-0.02206 0.77832,-0.02977c0.23695,-0.00696 0.47406,-0.00623 0.71093,-0.01443c0.12116,-0.0041 0.2422,-0.03186 0.36271,-0.02886c0.20746,0.00538 0.41438,0.03749 0.62139,0.03812c0.30989,0.00111 0.61988,-0.01612 0.92985,-0.0234c0.07351,-0.00183 0.14937,0.0165 0.22093,0.00522c0.17525,-0.02698 0.34739,-0.07754 0.52313,-0.09659c0.18387,-0.01991 0.37045,-0.01398 0.55595,-0.01938c0.16741,-0.00476 0.33485,-0.00954 0.50437,-0.01428c-0.08507,-0.16587 -0.14476,-0.32434 -0.24038,-0.45738c-0.10756,-0.1499 -0.18712,-0.30528 -0.23409,-0.482c-0.05108,-0.19128 -0.12111,-0.378 -0.16291,-0.57104c-0.04258,-0.1961 -0.06228,-0.39727 -0.08932,-0.59668c-0.02971,-0.21994 -0.05412,-0.44046 -0.08508,-0.66c-0.04152,-0.29349 -0.09893,-0.58548 -0.1272,-0.88022c-0.02514,-0.26223 -0.0257,-0.52712 -0.0265,-0.79115c-0.00078,-0.22238 0.0205,-0.44482 0.02006,-0.66715c-0.00068,-0.45622 -0.01048,-0.91238 0.09526,-1.36076c0.01339,-0.05636 0.03083,-0.11287 0.0352,-0.17007c0.02466,-0.31456 0.03268,-0.6308 0.07079,-0.94344c0.06277,-0.51427 0.14596,-1.02617 0.21685,-1.53952c0.02803,-0.20431 0.04993,-0.40501 0.12692,-0.60308c0.06048,-0.1555 -0.00101,-0.3535 0.15604,-0.48351c0.01079,-0.00882 0.01018,-0.03092 0.0148,-0.04694c0.08763,-0.30091 0.17597,-0.60176 0.26277,-0.90291c0.01467,-0.05117 0.01814,-0.10599 0.03568,-0.15619c0.03575,-0.10348 0.0788,-0.20439 0.11625,-0.30755c0.0449,-0.12314 0.07653,-0.25221 0.13248,-0.36979c0.08052,-0.16992 0.18537,-0.32834 0.26574,-0.49847c0.07193,-0.15251 0.11836,-0.31715 0.18916,-0.47047c0.03123,-0.06768 0.09324,-0.1215 0.14341,-0.17991c0.05367,-0.06247 0.1098,-0.12278 0.1798,-0.20072c-0.06872,-0.02171 -0.10651,-0.03918 -0.14603,-0.04543c-0.23287,-0.03729 -0.4662,-0.07165 -0.6994,-0.10739c-0.22196,-0.03403 -0.44354,-0.07064 -0.66589,-0.10258c-0.20592,-0.02958 -0.41321,-0.05208 -0.61906,-0.08269c-0.15367,-0.02284 -0.30558,-0.07863 -0.46122,-0.00766c-0.01535,0.00717 -0.04014,-0.00525 -0.06037,-0.00973c-0.2398,-0.05349 -0.47876,-0.11219 -0.72005,-0.159c-0.13535,-0.02625 -0.27432,-0.03777 -0.4122,-0.04779c-0.25772,-0.01857 -0.51637,-0.02671 -0.77384,-0.04788c-0.15044,-0.0124 -0.2989,-0.05017 -0.44935,-0.06082c-0.19774,-0.01394 -0.39666,-0.01295 -0.59509,-0.01748c-0.26325,-0.00578 -0.52789,0.00354 -0.78969,-0.02012c-0.25312,-0.0227 -0.45301,0.06871 -0.64053,0.21832c-0.14918,0.11883 -0.26275,0.26157 -0.3564,0.42941c-0.11467,0.20636 -0.27122,0.39031 -0.38067,0.5989c-0.11917,0.22676 -0.21801,0.46642 -0.30287,0.70842c-0.14141,0.40432 -0.26316,0.81552 -0.39678,1.22267c-0.06219,0.18945 -0.13955,0.37421 -0.19834,0.56485c-0.06938,0.22592 -0.12753,0.45531 -0.18753,0.68383c-0.01887,0.07214 -0.02185,0.14853 -0.04275,0.21979c-0.04661,0.15886 -0.12108,0.31235 -0.14587,0.47392c-0.0388,0.25498 -0.0505,0.51435 -0.06493,0.77262c-0.00585,0.10973 0.06465,0.16731 0.17061,0.16672c0.03712,-0.00029 0.07472,0.00771 0.11188,0.01287c0.1253,0.01744 0.24997,0.04568 0.3755,0.05108c0.32012,0.01361 0.64155,0.00338 0.96064,0.02843c0.4244,0.03317 0.84695,0.05985 1.27282,0.02733c0.19635,-0.0149 0.39639,-0.00513 0.59315,0.01204c0.16428,0.01419 0.32745,0.05018 0.4888,0.08669c0.18848,0.04248 0.37707,0.08744 0.56006,0.14764c0.1174,0.03878 0.23764,0.09043 0.33425,0.16491c0.32758,0.25288 0.56522,0.58171 0.75218,0.9477c0.01364,0.02699 0.00814,0.06395 0.01076,0.09656c0.01724,0.21268 -0.09705,0.37671 -0.19285,0.55276c-0.12857,0.23571 -0.31923,0.37557 -0.56945,0.4566c-0.10302,0.03344 -0.19627,0.09594 -0.29411,0.14542c-0.04714,0.02352 -0.10708,0.02833 -0.16315,0.04613c-0.06132,0.01959 -0.11688,0.06613 -0.17855,0.07448c-0.17153,0.02275 -0.34479,0.0319 -0.51748,0.04635c-0.00406,0.00032 -0.00838,-0.00008 -0.0126,-0.00011c-0.26137,-0.01102 -0.52295,-0.01594 -0.78379,-0.03462c-0.1894,-0.01335 -0.37961,-0.03288 -0.56493,-0.07159c-0.26125,-0.05444 -0.51595,-0.13819 -0.78894,-0.1179c-0.09536,0.00718 -0.19432,-0.00155 -0.28861,-0.01946c-0.20645,-0.03908 -0.41025,-0.09382 -0.61722,-0.1312c-0.06526,-0.01194 -0.14126,0.03046 -0.20464,0.01535c-0.21647,-0.05206 -0.43016,-0.11734 -0.64403,-0.18037c-0.06868,-0.02031 -0.10214,-0.00674 -0.10603,0.07009c-0.00725,0.14181 -0.02617,0.28325 -0.02814,0.42503c-0.0058,0.43707 -0.02025,0.8751 -0.0013,1.31146c0.0087,0.20297 0.09939,0.4012 0.13146,0.60491c0.05223,0.33123 0.13159,0.65305 0.26397,0.96154c0.01454,0.03425 0.02087,0.07211 0.02889,0.10872c0.03777,0.17027 0.06745,0.34279 0.11399,0.51091zM233.53177,187.07344c0.18808,0.01041 0.37656,0.01862 0.56518,0.02699c0.14795,0.00691 0.29607,0.01228 0.44425,0.01905c0.18146,0.00823 0.3629,0.02052 0.5444,0.02439c0.12825,0.00264 0.25692,-0.01093 0.38503,-0.00705c0.12063,0.00353 0.24074,0.02052 0.37595,0.03292c-0.05701,-0.17239 -0.16019,-0.27831 -0.28685,-0.34962c-0.14648,-0.0824 -0.2258,-0.20608 -0.28094,-0.35309c-0.06256,-0.16696 -0.12043,-0.33557 -0.17976,-0.50362c-0.0054,-0.01554 -0.01421,-0.03595 -0.00869,-0.04841c0.06645,-0.14619 -0.02134,-0.26538 -0.06737,-0.39144c-0.03484,-0.09526 -0.11953,-0.1377 -0.21089,-0.09584c-0.11308,0.0516 -0.22498,0.07301 -0.35061,0.05554c-0.17249,-0.02407 -0.34704,-0.0371 -0.52122,-0.04642c-0.15154,-0.00814 -0.30386,-0.00197 -0.4557,-0.0068c-0.27194,-0.0085 -0.54362,-0.02153 -0.81557,-0.02967c-0.04226,-0.00125 -0.08494,0.01375 -0.14275,0.02368c0.12351,0.29085 0.13531,0.60474 0.33269,0.84988c0.01772,0.02227 0.03255,0.04953 0.04036,0.07703c0.08889,0.30765 0.3247,0.49995 0.55133,0.69876c0.01927,0.01698 0.05327,0.02221 0.08115,0.02372zM236.00312,191.87636c0.24224,0.02099 0.48492,0.03731 0.72732,0.05499c0.05137,0.00471 0.10261,0.00906 0.15383,0.01357c0.17606,0.01563 0.35656,0.06091 0.52749,0.03701c0.3773,-0.05255 0.75168,-0.13233 1.12302,-0.21903c0.05223,-0.0122 0.10552,-0.03584 0.15498,-0.0656c0.18063,-0.05327 0.34992,-0.14329 0.51896,-0.24385c0.04426,-0.02656 0.08122,-0.06132 0.10801,-0.1014c0.03487,-0.02517 0.07009,-0.05028 0.10241,-0.07812c0.01025,-0.00887 0.01796,-0.01849 0.02652,-0.02785c0.11752,-0.08655 0.20788,-0.20149 0.29769,-0.32574c0.20952,-0.2899 0.44788,-0.55842 0.54477,-0.91448c0.04002,-0.14617 0.09932,-0.28882 0.12606,-0.43725c0.03996,-0.21985 0.05423,-0.44417 0.08765,-0.66534c0.04848,-0.31867 -0.01775,-0.62126 -0.11819,-0.91928c-0.05122,-0.15155 -0.11236,-0.29982 -0.15462,-0.41136c-0.12134,-0.03405 -0.21922,-0.06229 -0.31762,-0.08864c-0.02735,-0.00723 -0.05601,-0.01144 -0.08432,-0.01212c-0.34536,-0.00945 -0.69071,-0.02467 -1.03618,-0.02522c-0.31837,-0.00032 -0.63682,0.01563 -0.95524,0.02353c-0.08704,0.00235 -0.17435,0.0001 -0.26149,0.00348c-0.15246,0.0058 -0.30493,0.02122 -0.4575,0.02052c-0.24723,-0.00114 -0.49472,-0.01266 -0.742,-0.01887c-0.35886,-0.00929 -0.71764,-0.01735 -1.07648,-0.02683c-0.12659,-0.00337 -0.2531,-0.00974 -0.3796,-0.01416c-0.29698,-0.01009 -0.59412,-0.02054 -0.89121,-0.02941c-0.17648,-0.00536 -0.3532,-0.01176 -0.52973,-0.00888c-0.03525,0.00063 -0.08525,0.03261 -0.10161,0.06402c-0.0454,0.0865 -0.06162,0.19073 -0.11627,0.26956c-0.12936,0.18698 -0.2656,0.37087 -0.41553,0.54179c-0.1734,0.19764 -0.35274,0.38179 -0.61718,0.48251c-0.3359,0.12794 -0.68339,0.2009 -1.02964,0.27943c-0.18232,0.04119 -0.37659,0.03337 -0.56573,0.04017c-0.15347,0.00517 -0.30794,0.00606 -0.46082,-0.00447c-0.10874,-0.00735 -0.21523,-0.04844 -0.32376,-0.0542c-0.12975,-0.007 -0.26124,0.01822 -0.39096,0.0107c-0.23421,-0.01343 -0.46784,-0.04064 -0.74225,-0.06582c0.20456,0.14183 0.38334,0.27461 0.57109,0.39371c0.20179,0.12809 0.41193,0.24346 0.61862,0.36395c0.17362,0.10136 0.34538,0.20584 0.52195,0.30169c0.12672,0.06886 0.26013,0.12555 0.39025,0.18792c0.1898,0.09092 0.37529,0.19266 0.57029,0.27093c0.2603,0.10457 0.52927,0.18735 0.79199,0.28674c0.32465,0.12254 0.64152,0.26713 0.97059,0.37593c0.50999,0.16878 1.02565,0.32128 1.54236,0.46829c0.09894,0.02815 0.20073,0.0464 0.30307,0.06228c0.02517,0.01544 0.0527,0.02846 0.08544,0.03585c0.09676,0.02146 0.18506,0.03587 0.27877,0.04098c0.00242,0.00022 0.005,0.00079 0.00726,0.001c0.2018,0.05562 0.40154,0.10878 0.61759,0.12737z" data-paper-data="{&quot;origPos&quot;:null}" fill="#30419a"/><path d="M241.90543,177.85967c0.0837,0.00908 0.16222,0.04796 0.16941,0.16048c0.00731,0.11094 -0.06001,0.16569 -0.1607,0.18707c-0.03642,0.00768 -0.07378,0.01425 -0.11072,0.01627c-0.11031,0.00616 -0.20743,-0.0801 -0.21045,-0.18453c-0.00278,-0.09547 0.07523,-0.17322 0.18355,-0.18042c0.03716,-0.00256 0.07469,0.00055 0.12889,0.00114z" data-paper-data="{&quot;origPos&quot;:null}" fill="#30419a"/><path d="M241.96214,186.55852c-0.14437,-0.01395 -0.22433,-0.09428 -0.20979,-0.21091c0.01389,-0.10935 0.10695,-0.16979 0.24344,-0.15796c0.1417,0.01229 0.22805,0.09374 0.21828,0.2061c-0.00978,0.11233 -0.10896,0.17641 -0.25194,0.16278z" data-paper-data="{&quot;origPos&quot;:null}" fill="#30419a"/><path d="M242.93001,174.53481c-0.14002,-0.01337 -0.21806,-0.08617 -0.21107,-0.19667c0.00754,-0.11659 0.10029,-0.17932 0.24562,-0.16651c0.14392,0.01285 0.23057,0.09308 0.22003,0.20413c-0.01041,0.11142 -0.10903,0.17328 -0.25458,0.15905z" data-paper-data="{&quot;origPos&quot;:null}" fill="#30419a"/><path d="M241.15008,182.95086c0.01591,-0.10267 0.11147,-0.1655 0.22391,-0.14715c0.10176,0.01652 0.17665,0.11021 0.1627,0.20311c-0.01455,0.09737 -0.122,0.17363 -0.22264,0.15828c-0.10533,-0.0158 -0.17958,-0.11292 -0.16398,-0.21425z" data-paper-data="{&quot;origPos&quot;:null}" fill="#30419a"/></g><g data-paper-data="{&quot;index&quot;:null}"><path d="M249.36925,178.96054l0.35093,0.37806l0.17949,1.10015l-0.32169,1.40386l-0.82958,1.16493l-0.91144,0.42926l-1.0884,0.40094l-0.92644,-0.21803l-0.59952,-0.34136l-0.65055,-0.93364l-0.11771,-1.19932l0.19194,-1.13624l0.58179,-0.80293l1.0992,-0.90021l1.48336,-0.31376l0.38239,0.03508l0.84561,0.27097l0.33062,0.66223" data-paper-data="{&quot;origPos&quot;:null}" fill="#ef463c"/><g data-paper-data="{&quot;origPos&quot;:null}"><path d="M247.91128,182.58102l-1.10108,0.25292l-0.83891,-0.16867c0,0 -0.35022,-0.91047 -0.32061,-0.94697c0.02962,-0.03667 0.11688,-1.27406 0.11688,-1.27406l0.94392,-1.11942l1.16968,-0.14179l0.6504,0.36108l0.35976,0.8065l-0.42032,1.42967z" data-paper-data="{&quot;origPos&quot;:null}" fill="#ffffff"/><g data-paper-data="{&quot;origPos&quot;:null}" fill="#30419a"><path d="M244.2099,181.34282c0.01817,-0.19804 0.02926,-0.39727 0.05713,-0.59408c0.01876,-0.13219 0.06567,-0.25987 0.0919,-0.39137c0.02157,-0.10725 0.01748,-0.22104 0.04986,-0.32395c0.03065,-0.09767 0.07012,-0.194 0.20137,-0.22798c0.05381,-0.01414 0.08059,-0.12494 0.12345,-0.18944c0.21384,-0.32173 0.45421,-0.62192 0.74961,-0.87313c0.22288,-0.18942 0.44855,-0.37684 0.68425,-0.54968c0.09307,-0.06831 0.2152,-0.10017 0.32745,-0.13888c0.1755,-0.0604 0.35129,-0.1239 0.53171,-0.16529c0.24477,-0.05596 0.49367,-0.12467 0.7412,-0.12683c0.20303,-0.00168 0.41398,0.04568 0.61064,0.13443c0.27428,0.12405 0.52544,0.2789 0.74977,0.47802c0.22175,0.19677 0.43583,0.4009 0.59462,0.65422c0.06933,0.11068 0.14762,0.21869 0.19634,0.33834c0.14193,0.34944 0.229,0.70927 0.22335,1.09329c-0.00359,0.24911 -0.014,0.49618 -0.0685,0.73712c-0.06478,0.28637 -0.20075,0.54747 -0.31919,0.81579c-0.11205,0.25404 -0.27668,0.46893 -0.44725,0.67576c-0.15559,0.18877 -0.36069,0.33695 -0.54507,0.5019c-0.0713,0.06346 -0.13768,0.13842 -0.22027,0.18213c-0.15286,0.08067 -0.31348,0.14857 -0.47528,0.2102c-0.25989,0.09887 -0.52615,0.18122 -0.78443,0.28339c-0.28661,0.1132 -0.5857,0.1318 -0.88372,0.11006c-0.37576,-0.02729 -0.70409,-0.18991 -1.01433,-0.40286c-0.32703,-0.22449 -0.57326,-0.52259 -0.79039,-0.84041c-0.17716,-0.2592 -0.26746,-0.56487 -0.31211,-0.87948c-0.01651,-0.11758 -0.04545,-0.2333 -0.06549,-0.35067c-0.00919,-0.05248 -0.01037,-0.1065 -0.01494,-0.15979c0.00301,-0.00025 0.00566,-0.00052 0.00832,-0.0008zM247.88883,178.12984c-0.00357,0.01226 -0.00714,0.02454 -0.01071,0.03665c-0.38475,-0.057 -0.74769,0.02784 -1.1117,0.14552c-0.44648,0.14457 -0.78089,0.45261 -1.12571,0.74076c-0.28005,0.23442 -0.50141,0.52761 -0.71659,0.82573c-0.14417,0.1998 -0.23782,0.40389 -0.25671,0.64615c-0.02115,0.27061 -0.04578,0.54088 -0.06693,0.81146c-0.01048,0.13331 -0.04758,0.27449 -0.01788,0.39921c0.059,0.24784 0.11535,0.51137 0.24644,0.72328c0.19619,0.31697 0.45243,0.5976 0.69144,0.88681c0.04396,0.05321 0.12604,0.07633 0.19272,0.1087c0.05194,0.02541 0.11301,0.03523 0.15999,0.06684c0.18051,0.12159 0.37757,0.18114 0.5945,0.18248c0.29477,0.00166 0.58842,-0.00133 0.86543,-0.12453c0.146,-0.06502 0.28973,-0.13971 0.44208,-0.18436c0.35691,-0.10485 0.6442,-0.31725 0.9129,-0.55987c0.32387,-0.29237 0.5887,-0.63006 0.75397,-1.03691c0.08526,-0.20994 0.19752,-0.42053 0.22551,-0.63991c0.0422,-0.3301 0.02509,-0.66844 0.02657,-1.00316c0.0015,-0.39789 -0.16329,-0.74051 -0.38872,-1.05368c-0.10683,-0.14827 -0.24219,-0.27742 -0.37431,-0.40559c-0.1363,-0.13241 -0.26785,-0.28399 -0.43165,-0.37025c-0.18615,-0.09812 -0.40562,-0.13295 -0.61064,-0.19534z" data-paper-data="{&quot;origPos&quot;:null}"/><path d="M245.36868,181.64797c-0.00899,-0.196 -0.03154,-0.3927 -0.02221,-0.5879c0.0066,-0.13696 0.03268,-0.28389 0.09252,-0.40566c0.13273,-0.26964 0.28764,-0.52919 0.4421,-0.78754c0.16312,-0.2728 0.39521,-0.49394 0.67698,-0.62125c0.26166,-0.11811 0.53602,-0.22774 0.83827,-0.24622c0.27302,-0.01678 0.52318,-0.01134 0.77138,0.13553c0.17434,0.10316 0.37987,0.16175 0.48897,0.34452c0.0982,0.16409 0.1701,0.34382 0.25348,0.51686c0.00352,0.00734 0.00248,0.01686 0.006,0.0242c0.10078,0.20651 0.06502,0.41888 0.03858,0.63471c-0.02913,0.23924 -0.0347,0.48134 -0.05694,0.72171c-0.00374,0.0408 -0.04145,0.07779 -0.0612,0.11762c-0.11268,0.2265 -0.22684,0.45215 -0.33599,0.68019c-0.06999,0.14657 -0.18215,0.24726 -0.30501,0.35204c-0.21384,0.18255 -0.45766,0.30844 -0.71689,0.38111c-0.25839,0.07275 -0.52264,0.17138 -0.8033,0.11869c-0.185,-0.03448 -0.37835,-0.04663 -0.55221,-0.11106c-0.22515,-0.08348 -0.36747,-0.28349 -0.49089,-0.47807c-0.1046,-0.16486 -0.17344,-0.35322 -0.25028,-0.53443c-0.03309,-0.07813 -0.04598,-0.16472 -0.06797,-0.24743c0.01843,-0.0025 0.03651,-0.00506 0.05461,-0.0076zM246.48975,182.61778c0.45902,0.02775 0.79985,-0.06227 1.12785,-0.21283c0.08059,-0.03688 0.1763,-0.05751 0.23805,-0.11452c0.10117,-0.09328 0.1879,-0.20488 0.26707,-0.31822c0.26589,-0.37978 0.35039,-0.83326 0.50695,-1.25788c0.10483,-0.2841 0.03365,-0.5518 -0.04985,-0.81518c-0.03301,-0.10384 -0.12597,-0.19903 -0.2132,-0.27267c-0.11225,-0.09483 -0.24626,-0.16435 -0.37128,-0.2441c-0.04118,-0.02619 -0.08314,-0.07256 -0.12478,-0.07271c-0.1582,-0.00034 -0.31629,0.01701 -0.47453,0.0228c-0.26183,0.00942 -0.47351,0.15297 -0.69066,0.2687c-0.15145,0.08061 -0.30006,0.1932 -0.40577,0.32668c-0.18727,0.23627 -0.39952,0.46449 -0.44954,0.78442c-0.02611,0.16633 -0.09641,0.32968 -0.09845,0.49507c-0.00288,0.24707 -0.01836,0.50365 0.11963,0.73179c0.07039,0.1162 0.13079,0.23815 0.20531,0.35141c0.11993,0.18272 0.27681,0.31577 0.41318,0.32723z" data-paper-data="{&quot;origPos&quot;:null}"/></g></g></g></g></g></svg>