<svg version="1.1" xmlns="http://www.w3.org/2000/svg" xmlns:xlink="http://www.w3.org/1999/xlink" width="30.80426" height="27.88824" viewBox="0,0,30.80426,27.88824"><g transform="translate(-224.59787,-166.05588)"><g data-paper-data="{&quot;isPaintingLayer&quot;:true}" fill-rule="nonzero" stroke-linecap="butt" stroke-linejoin="miter" stroke-miterlimit="10" stroke-dasharray="" stroke-dashoffset="0" style="mix-blend-mode: normal"><path d="M225.59787,192.94413v-25.88824h28.80426v25.88824z" fill="#ff6666" stroke="#000000" stroke-width="2"/><g fill="none"><path d="M233.47184,185.54713c0,-3.66391 2.97046,-6.63437 6.63417,-6.63437" stroke="#1dd4ff" stroke-width="7.09497"/><path d="M239.89399,178.91275c3.66371,0 6.63417,2.97046 6.63417,6.63437" stroke="#1dd4ff" stroke-width="7.09497"/><g stroke="#a430ff" stroke-width="7.09497"><path d="M235.5915,185.55449c0,-2.5045 2.03043,-4.53511 4.53493,-4.53511"/><path d="M239.87357,181.01939c2.5045,0 4.53493,2.03061 4.53493,4.53511"/></g><g stroke="#3131ff" stroke-width="7.09497"><path d="M234.49243,185.55449c0,-3.11172 2.52248,-5.63419 5.634,-5.63419"/><path d="M239.87357,179.92031c3.11153,0 5.634,2.52247 5.634,5.63419"/></g><g stroke="#00cc44" stroke-width="7.09497"><path d="M232.34477,185.54657c0,-4.28551 3.47444,-7.76013 7.75992,-7.76013"/><path d="M239.89532,177.78644c4.28548,0 7.75992,3.47462 7.75992,7.76013"/></g><g stroke="#ffed12" stroke-width="5"><path d="M231.28879,185.54657c0,-4.8687 3.94738,-8.81609 8.81589,-8.81609"/><path d="M239.89532,176.73048c4.86851,0 8.81589,3.94739 8.81589,8.81609"/></g><g stroke="#ff9f2c" stroke-width="3"><path d="M230.18574,185.54657c0,-5.47819 4.44094,-9.91914 9.91894,-9.91914"/><path d="M239.89532,175.62743c5.478,0 9.91894,4.44094 9.91894,9.91914"/></g><g stroke="#ff2929" stroke-width="2.5"><path d="M228.24241,185.55449c0,-6.48404 5.31422,-11.74031 11.86953,-11.74031"/><path d="M239.88806,173.81418c6.55531,0 11.86953,5.25627 11.86953,11.74031"/></g></g></g></g></svg>