<svg version="1.1" xmlns="http://www.w3.org/2000/svg" xmlns:xlink="http://www.w3.org/1999/xlink" width="197.37308" height="119.06676" viewBox="0,0,197.37308,119.06676"><g transform="translate(-228.56175,-114.00095)"><g data-paper-data="{&quot;isPaintingLayer&quot;:true}" fill="#9966ff" fill-rule="nonzero" stroke="none" stroke-linecap="butt" stroke-linejoin="miter" stroke-miterlimit="10" stroke-dasharray="" stroke-dashoffset="0" style="mix-blend-mode: normal"><text transform="translate(248.95161,142.27682) scale(0.65002,0.65002)" font-size="40" xml:space="preserve" fill="#9966ff" fill-rule="nonzero" stroke="none" stroke-width="1" stroke-linecap="butt" stroke-linejoin="miter" stroke-miterlimit="10" stroke-dasharray="" stroke-dashoffset="0" font-family="Sans Serif" font-weight="normal" text-anchor="start" style="mix-blend-mode: normal"><tspan x="0" dy="0">Multiplayer</tspan></text><path d="M326.7519,225.98294c0,3.91281 -2.94539,7.08477 -6.57872,7.08477c-3.63332,0 -6.57872,-3.17196 -6.57872,-7.08477c0,-3.91281 2.94539,-7.08477 6.57872,-7.08477c3.63332,0 6.57872,3.17196 6.57872,7.08477z" stroke-width="0"/><path d="M361.21955,219.77886c-1.38675,2.08013 -3.46688,0.69338 -3.46688,0.69338l-1.24945,-0.85617c-2.9289,-1.46445 -5.83083,-2.88436 -8.63785,-4.57229c-5.16757,-2.29615 -10.19108,-5.43609 -15.89363,-6.32115c-11.4248,-1.77317 -22.56803,4.15755 -32.49341,8.84866c-3.95109,1.86744 -8.57643,3.49933 -12.25513,5.88526c-1.48921,0.96586 -2.48733,2.53299 -3.74245,3.7881c0,0 -1.76777,1.76777 -3.53553,0c-1.76777,-1.76777 0,-3.53553 0,-3.53553c0.30451,-0.30451 4.18002,-4.19337 4.35443,-4.30878c3.90505,-2.58398 8.8184,-4.35369 13.04229,-6.34965c10.85188,-5.12797 22.86739,-11.21063 35.3233,-9.27973c6.31643,0.97917 11.78735,4.29405 17.50601,6.83628c2.78962,1.67021 5.66049,3.08293 8.56803,4.5367l1.78688,1.16805c0,0 2.08013,1.38675 0.69338,3.46688z" stroke-width="0.5"/><path d="M394.81973,217.62961c-0.96434,-0.96434 -0.87656,-1.92867 -0.59758,-2.60604c-3.13105,-6.5016 -10.17166,-11.65736 -16.12458,-15.23467c-8.17059,-4.90998 -16.60702,-9.04433 -25.33605,-12.83975c-3.03527,-1.31975 -6.17315,-2.39071 -9.23709,-3.64244c-1.41249,-0.57706 -2.66279,-1.57877 -4.14436,-1.94355c-3.59018,-0.88396 -8.72064,0.33507 -12.22773,1.03649c-24.33706,3.05481 -47.28756,12.89016 -68.48966,25.00564c0,0 -2.17061,1.24035 -3.41096,-0.93026c-1.24035,-2.17061 0.93026,-3.41096 0.93026,-3.41096c21.69297,-12.39598 45.25595,-22.49942 70.16944,-25.59987c4.14977,-0.82995 9.85755,-1.98609 14.08714,-0.98773c1.75936,0.41529 3.28093,1.523 4.9593,2.19447c3.11309,1.24547 6.28139,2.35651 9.35668,3.69259c11.93191,5.18388 24.35422,10.77861 34.26188,19.34725c4.41254,3.81619 8.15764,7.2098 10.39831,12.71651l-1.05948,3.2023c0,0 -1.76777,1.76777 -3.53553,0z" stroke-width="0.5"/><path d="M424.69466,202.31786c-2.14373,1.28624 -3.42997,-0.85749 -3.42997,-0.85749l-1.34495,-2.27798c-5.3673,-5.32529 -8.96614,-12.21261 -14.41839,-17.42986c-2.85753,-2.73436 -6.30623,-5.04203 -9.69686,-7.04303c-4.12815,-2.29316 -8.40427,-5.3324 -12.77029,-7.12153c-2.66908,-1.09375 -5.66351,-1.13944 -8.42769,-1.9638c-2.81775,-0.84033 -5.60184,-1.80916 -8.46186,-2.49189c-12.41395,-2.9634 -25.29248,-6.46196 -38.1301,-6.99513c-7.68727,-0.31927 -15.54204,0.78355 -23.18147,1.4738c-19.69215,3.76267 -38.75583,9.95181 -55.52721,21.12155c-5.86923,3.90891 -11.7677,8.49052 -16.27783,13.9331c0,0 -1.60046,1.92055 -3.52101,0.32009c-1.92055,-1.60046 -0.32009,-3.52101 -0.32009,-3.52101c18.19705,-21.72769 48.03651,-31.688 74.95094,-36.80517c7.94814,-0.72683 16.11464,-1.85234 24.11407,-1.51672c13.15318,0.55184 26.34525,4.08243 39.06392,7.1286c2.95428,0.70756 5.8337,1.69774 8.74401,2.56866c2.8812,0.86221 5.99205,0.95231 8.77818,2.08464c4.59885,1.86905 9.11103,5.0345 13.45442,7.44776c3.71911,2.20825 7.49988,4.72933 10.63549,7.73887c5.6332,5.40673 9.42737,12.4485 14.93281,17.994l1.69138,2.78257c0,0 1.28624,2.14373 -0.85749,3.42997z" stroke-width="0.5"/></g></g></svg>