<svg version="1.1" xmlns="http://www.w3.org/2000/svg" xmlns:xlink="http://www.w3.org/1999/xlink" width="94.08092" height="95.94424" viewBox="0,0,94.08092,95.94424"><g transform="translate(-272.42606,-128.44912)"><g data-paper-data="{&quot;isPaintingLayer&quot;:true}" fill-rule="nonzero" stroke-linecap="butt" stroke-linejoin="miter" stroke-miterlimit="10" stroke-dasharray="" stroke-dashoffset="0" style="mix-blend-mode: normal"><path d="M279.94264,133.94808l63.88293,42.22146l-65.63244,36.95921z" fill="#fbe226" stroke="#a3a3a3" stroke-width="6"/><path d="M364.96582,193.52618c-0.02881,0.21371 -0.09383,0.40867 -0.18811,0.58806c0.01175,0.10788 0.01661,0.21774 0.01415,0.32916c-0.02132,0.96479 -0.58647,1.78983 -1.39614,2.18875l-2.18085,1.12778l-0.03112,-0.06018l-0.15008,0.14487c-4.50332,1.48831 -8.99966,2.93847 -13.50895,4.38471c-0.59245,0.19001 -8.53151,2.98334 -8.62092,2.99359c-0.00559,0.00064 -0.01117,0.00127 -0.01675,0.0019l0.00112,0.00336l-2.76631,0.91959c-0.28031,0.10053 -0.58345,0.15232 -0.89895,0.14535c-0.16763,-0.0037 -0.33103,-0.02383 -0.48873,-0.05879c-0.24426,0.10833 -0.47895,0.23605 -0.70027,0.39113c-1.53694,1.07684 -2.4507,2.97088 -4.10992,3.84769c-2.96554,1.56715 -6.9514,2.10898 -10.1842,2.89865c-0.89035,0.21749 -1.76694,0.55879 -2.65189,0.82528c-0.71976,0.65837 -1.46134,1.27545 -2.25438,1.7987c-3.23792,2.13641 -7.61711,2.92749 -11.2205,4.23267c-1.72786,0.62584 -3.90898,1.49248 -6.13147,1.99947c-0.05117,0.02599 -0.10256,0.05157 -0.15422,0.07671c-5.51105,1.26838 -11.65823,3.17458 -17.26713,1.30912c-1.44206,-0.47961 -3.65646,-0.69893 -4.00811,-2.17585l-0.75595,0.09926c-0.13849,0.02056 -0.28059,0.02972 -0.4253,0.02652c-1.38037,-0.0305 -2.47467,-1.17424 -2.44417,-2.55461c0.02787,-1.26133 0.98525,-2.28379 2.20333,-2.4275l2.54802,-0.34482c-0.4169,-0.4578 -0.66547,-1.0703 -0.65071,-1.7382c0.02132,-0.96479 0.58647,-1.78983 1.39614,-2.18875l0.47879,-0.24759c-0.01129,-0.10597 -0.01593,-0.21384 -0.01351,-0.32321c0.02862,-1.29516 1.03727,-2.33847 2.30189,-2.43716c0.25203,-1.1421 1.28275,-1.98474 2.49637,-1.95792c0.50042,0.01106 0.96324,0.16842 1.3485,0.43032l0.68722,0.45092c1.04009,-0.49787 2.1101,-0.92761 3.21932,-1.24872c1.188,-0.34391 2.95579,-0.66746 4.81728,-0.73841c4.67804,-3.25571 10.00976,-5.28197 15.29082,-7.91916c2.42346,-1.2102 4.91581,-2.25786 7.404,-3.31518c-0.81266,-0.42759 -1.35842,-1.28863 -1.33675,-2.26905c0.01638,-0.74148 0.35398,-1.40042 0.87693,-1.84681l2.03078,-1.74807l0.05731,0.06658l0.12076,-0.20635c4.61228,-2.71762 10.25102,-6.26069 15.65815,-7.12167c0.48789,-0.07769 0.98855,0.01666 1.48612,0.08264c2.89909,-2.33368 6.02837,-4.63048 9.24529,-4.69352c-0.04409,-0.12157 -0.09038,-0.24181 -0.13975,-0.36017c0,0 -0.87698,-2.34113 1.46416,-3.21811c2.34113,-0.87698 3.21811,1.46416 3.21811,1.46416c1.0304,3.38585 2.4596,2.77238 5.3344,4.74924c2.02311,1.3912 3.05623,2.49079 4.74672,4.11767l1.93276,1.11033c0.54323,0.29815 0.96243,0.79185 1.16499,1.38425l0.03695,-0.20928l2.5523,0.45059c1.21504,0.19354 2.13093,1.25944 2.10299,2.5239c-0.01799,0.81422 -0.42332,1.52891 -1.03606,1.97193l-0.86551,0.63878c0.28103,0.51434 0.43968,1.05215 0.36105,1.63546z" fill="#a3a3a3" stroke="none" stroke-width="0.5"/></g></g></svg>