<svg version="1.1" xmlns="http://www.w3.org/2000/svg" xmlns:xlink="http://www.w3.org/1999/xlink" width="75.625" height="69.14792" viewBox="0,0,75.625,69.14792"><g transform="translate(-202.1875,-145.59494)"><g data-paper-data="{&quot;isPaintingLayer&quot;:true}" fill-rule="nonzero" stroke-linejoin="miter" stroke-miterlimit="10" stroke-dasharray="" stroke-dashoffset="0" style="mix-blend-mode: normal"><path d="M274.8125,178.96479c1.12568,4.50272 2.6819,16.06897 0.8125,19.80776c-1.54288,3.08577 -5.29774,5.75233 -7.87738,7.82073c-1.53072,1.22736 -7.0114,6.3718 -7.91646,5.85463c-3.46779,-1.9816 -2.32177,-9.68411 -1.8296,-12.92077c0.62786,-4.129 -0.36351,-7.41995 -0.31406,-11.25459c0.064,-4.96253 1.54313,-9.90883 1.65882,-14.91817c0.00501,-0.21687 -1.71368,-1.17507 -1.87935,-1.83772c-0.34681,-1.38726 0.26553,-8.85015 -0.02679,-9.00483c-0.21253,-0.11246 -0.78196,0.05381 -1.12768,0.05879c-3.83329,0.0553 -7.21143,0.53613 -11.125,0.5c-6.89957,-0.06369 -13.32246,-0.61643 -20.03147,-1.74501c-3.33279,-0.56063 -8.03283,1.08403 -11.46213,1.24155c-2.69873,0.12396 -7.95298,0.52968 -7.37811,-3.53711c0.29745,-2.10423 8.97404,-3.55638 10.24387,-4.20872c4.34056,-2.22983 8.23226,-6.38614 13.13481,-7.61178c8.02681,-2.0067 19.38226,0.88543 27.73016,1.2641c1.58276,0.0718 3.58,-0.21599 5.6378,-0.51863c3.25233,1.21594 7.25704,1.6277 10.82302,1.56396c3.5843,5.434 0.87829,10.67452 1.51138,17.51398c0.1594,1.72201 1.62221,8.36607 -0.58433,9.62695z" fill="#fff700" stroke="none" stroke-width="0.5" stroke-linecap="butt"/><path d="M203.4375,213.28245v-51.625h54.875v51.625z" fill="#ff0000" stroke="#000000" stroke-width="2.5" stroke-linecap="butt"/><path d="M203.5625,161.21994l26.125,-14.375" fill="none" stroke="#000000" stroke-width="2.5" stroke-linecap="round"/><path d="M258.3125,161.70482l17.5,-11.75" fill="none" stroke="#000000" stroke-width="2.5" stroke-linecap="round"/><path d="M229.8125,147.07982l38.52247,2.13421" fill="none" stroke="#000000" stroke-width="2.5" stroke-linecap="round"/><path d="M258.8125,213.49286l16.125,-14" fill="none" stroke="#000000" stroke-width="2.5" stroke-linecap="round"/><path d="M276.5625,150.61786l-0.875,49.125" fill="none" stroke="#000000" stroke-width="2.5" stroke-linecap="round"/><path d="M274.9375,149.57982l-1.08716,-0.06023l-7.41284,-0.82365" fill="none" stroke="#000000" stroke-width="2.5" stroke-linecap="round"/></g></g></svg>