<svg version="1.1" xmlns="http://www.w3.org/2000/svg" xmlns:xlink="http://www.w3.org/1999/xlink" width="50" height="50" viewBox="0,0,50,50"><g transform="translate(-215,-155)"><g data-paper-data="{&quot;isPaintingLayer&quot;:true}" fill-rule="nonzero" stroke-linecap="butt" stroke-linejoin="miter" stroke-miterlimit="10" stroke-dasharray="" stroke-dashoffset="0" style="mix-blend-mode: normal"><path d="M264,180c0,13.25483 -10.74517,24 -24,24c-13.25483,0 -24,-10.74517 -24,-24c0,-13.25483 10.74517,-24 24,-24c13.25483,0 24,10.74517 24,24z" fill="none" stroke="#000000" stroke-width="2"/><path d="M241.03057,163.47598c1.03597,1.20739 1.21991,3.88417 1.22513,5.27973c0.01589,4.25125 2.6936,9.7439 -0.3125,12.75c-1.66858,1.66858 -4.61841,1.52937 -4.6875,-1.25c-0.09378,-3.77294 0.03135,-7.54835 0,-11.32233c-0.00934,-1.12475 -0.35014,-2.18081 -0.56633,-3.26176c-0.03842,-0.17418 -0.05867,-0.35518 -0.05867,-0.54091c0,-1.37118 1.10388,-2.48453 2.47143,-2.49984c0.65677,-0.06891 1.34429,0.1643 1.92844,0.84511z" fill="#9966ff" stroke="none" stroke-width="0.5"/><path d="M237.3807,194.88071c0,-1.38071 1.11929,-2.5 2.5,-2.5c1.38071,0 2.5,1.11929 2.5,2.5c0,1.38071 -1.11929,2.5 -2.5,2.5c-1.38071,0 -2.5,-1.11929 -2.5,-2.5z" fill="#9966ff" stroke="none" stroke-width="0.5"/></g></g></svg>