<svg version="1.1" xmlns="http://www.w3.org/2000/svg" xmlns:xlink="http://www.w3.org/1999/xlink" width="117.23874" height="117.23874" viewBox="0,0,117.23874,117.23874"><g transform="translate(-261.38065,-121.38065)"><g data-paper-data="{&quot;isPaintingLayer&quot;:true}" fill-rule="nonzero" stroke-linejoin="miter" stroke-miterlimit="10" stroke-dasharray="" stroke-dashoffset="0" style="mix-blend-mode: normal"><path d="M261.38066,180.00003c0,-32.37458 26.24478,-58.61937 58.61937,-58.61937c32.37458,0 58.61937,26.24478 58.61937,58.61937c0,32.37458 -26.24478,58.61937 -58.61937,58.61937c-32.37458,0 -58.61937,-26.24478 -58.61937,-58.61937z" fill="#40ff00" stroke="none" stroke-width="0" stroke-linecap="butt"/><path d="M274.29862,180.00001c0,-25.24018 20.46121,-45.70139 45.70139,-45.70139c25.24018,0 45.70139,20.46121 45.70139,45.70139c0,25.24018 -20.46121,45.70139 -45.70139,45.70139c-25.24018,0 -45.70139,-20.46121 -45.70139,-45.70139z" fill="#00ffc3" stroke="#ffb900" stroke-width="5" stroke-linecap="butt"/><path d="M284.50245,152.86211l26.27016,19.7569" fill="none" stroke="#ffb900" stroke-width="5" stroke-linecap="round"/><path d="M323.58202,194.54701l2.17109,29.09257" fill="none" stroke="#ffb900" stroke-width="5" stroke-linecap="round"/><path d="M350.93773,147.43441l-20.62533,22.57931" fill="none" stroke="#ffb900" stroke-width="5" stroke-linecap="round"/><path d="M342.47077,180.00001c0,12.71002 -10.0605,23.01353 -22.47076,23.01353c-12.41026,0 -22.47076,-10.30351 -22.47076,-23.01353c0,-12.71002 10.0605,-23.01353 22.47076,-23.01353c12.41026,0 22.47076,10.30351 22.47076,23.01353z" fill="#00ffc3" stroke="#ffb900" stroke-width="5" stroke-linecap="butt"/><text transform="translate(275.81808,218.64607) scale(0.5,0.5)" font-size="40" xml:space="preserve" fill="#000000" fill-rule="nonzero" stroke="none" stroke-width="1" stroke-linecap="butt" stroke-linejoin="miter" stroke-miterlimit="10" stroke-dasharray="" stroke-dashoffset="0" font-family="&quot;Pusab&quot;, Sans Serif" font-weight="normal" text-anchor="start" style="mix-blend-mode: normal"><tspan x="0" dy="0">settings</tspan></text></g></g></svg>