<svg version="1.1" xmlns="http://www.w3.org/2000/svg" xmlns:xlink="http://www.w3.org/1999/xlink" width="85.80042" height="85.80042" viewBox="0,0,85.80042,85.80042"><g transform="translate(-277.09979,-137.09979)"><g stroke="none" stroke-miterlimit="10"><path d="M277.09979,180c0,-23.69313 19.20707,-42.90021 42.90021,-42.90021c23.69313,0 42.90021,19.20707 42.90021,42.90021c0,23.69313 -19.20707,42.90021 -42.90021,42.90021c-23.69313,0 -42.90021,-19.20707 -42.90021,-42.90021z" fill="#40ff00" stroke-width="0"/><text transform="translate(307.58402,212.07491) scale(0.27641,0.27641)" font-size="40" xml:space="preserve" fill="#000000" stroke-width="1" font-family="&quot;Pusab&quot;, Sans Serif" font-weight="normal" text-anchor="start"><tspan x="0" dy="0">exit</tspan></text><path d="M339.16989,158.55062c0.35882,1.79408 -1.43526,2.15289 -1.43526,2.15289l-0.58746,-0.00291c-3.46898,2.16563 -6.22895,4.9154 -9.46558,7.34707c-0.73011,0.54853 -1.45702,1.10341 -2.18097,1.66392c7.05957,6.19228 13.57591,13.0863 19.15625,20.54806c0.33938,0.59154 0.67876,1.18308 1.01814,1.77462l0.18451,0.09335c0,0 1.29373,1.29373 0,2.58745c-1.29373,1.29373 -2.58745,0 -2.58745,0l-0.77415,-0.86532c-0.29973,-0.52691 -0.59946,-1.0538 -0.89919,-1.58071c-5.53921,-7.36214 -12.01315,-14.16193 -19.02152,-20.25272c-5.571,4.46724 -10.98318,9.21698 -16.35149,13.9143c0,0 -1.37692,1.2048 -2.58172,-0.17211c-1.2048,-1.37692 0.17211,-2.58172 0.17211,-2.58172c5.2285,-4.57489 10.49494,-9.2044 15.91281,-13.57297c-1.72464,-1.42371 -3.47729,-2.80497 -5.25232,-4.1417c-4.64535,-3.49829 -9.12408,-8.16404 -14.93242,-9.571c0,0 -1.77498,-0.44375 -1.33124,-2.21873c0.44375,-1.77498 2.21873,-1.33124 2.21873,-1.33124c6.38153,1.63529 11.11097,6.32911 16.2465,10.19813c2.02464,1.52533 4.02079,3.10672 5.98055,4.74146c0.94185,-0.73356 1.88879,-1.45774 2.84139,-2.1709c3.31506,-2.48185 6.15784,-5.29117 9.70769,-7.51223l1.80921,-0.48224c0,0 1.79408,-0.35882 2.15289,1.43526z" fill="#ff0000" stroke-width="0.5"/></g></g></svg>