<svg version="1.1" xmlns="http://www.w3.org/2000/svg" xmlns:xlink="http://www.w3.org/1999/xlink" width="126.26667" height="110.77818" viewBox="0,0,126.26667,110.77818"><g transform="translate(-256.86667,-124.61091)"><g data-paper-data="{&quot;isPaintingLayer&quot;:true}" fill-rule="nonzero" stroke="none" stroke-width="1" stroke-linecap="butt" stroke-linejoin="miter" stroke-miterlimit="10" stroke-dasharray="" stroke-dashoffset="0" style="mix-blend-mode: normal"><path d="M256.86667,165.41631c0,0 15.25722,-27.35778 36.82778,-35.24944c0,0 41.56278,-9.47 55.24167,-3.68278c0,0 27.35778,18.94 34.19722,29.46222c0,0 -36.82778,68.39444 -54.18944,78.91667c0,0.52611 -65.23778,-41.03667 -72.07722,-69.44667z" fill="#7fccef"/><path d="M328.94389,235.38909l-4.735,-36.30167l25.25333,-30.51444l28.93611,-17.88778c2.10444,1.57833 3.68278,3.68278 4.735,5.26111c0,0 -36.30167,68.39444 -54.18944,79.44278z" fill="#678fe4"/><path d="M313.68667,151.73743l35.77556,16.83556c-1.05222,16.83556 -20.51833,66.81611 -20.51833,66.81611c-15.25722,-15.78333 -28.41,-61.555 -28.41,-61.555z" fill="#73b5e4"/><path d="M383.13333,155.94631c-13.15278,7.36556 -21.04444,8.94389 -33.67111,12.62667c-18.94,5.78722 -48.92833,5.26111 -48.92833,5.26111c-9.47,0 -43.66722,-8.41778 -43.66722,-8.41778c0,0 15.78333,-26.83167 36.82778,-35.24944c0,0 41.03667,-9.47 55.24167,-3.68278c0,0 27.35778,18.94 34.19722,29.46222z" fill="#92d7ef"/><path d="M335.78333,137.00631l14.205,32.09278c-18.94,5.78722 -48.92833,5.26111 -48.92833,5.26111l2.10444,-34.19722l6.31333,-12.62667c6.83944,-1.57833 14.73111,-2.10444 22.09667,-2.63056z" fill="#7fccef"/><path d="M344.72722,147.00243c2.63056,0 24.72722,4.735 37.35389,7.36556c0.52611,0.52611 0.52611,1.05222 1.05222,1.57833c-13.15278,7.36556 -21.04444,8.94389 -33.67111,12.62667c-18.94,5.78722 -48.92833,5.26111 -48.92833,5.26111c-9.47,0 -43.66722,-8.41778 -43.66722,-8.41778c0,0 0.52611,-1.05222 1.57833,-2.63056c15.25722,-4.735 37.35389,-11.57444 41.56278,-11.57444c6.31333,0 41.03667,-3.68278 44.71944,-4.20889z" fill="#83cdef"/><path d="M293.69444,130.16687c0,0 41.03667,-9.47 55.76778,-3.15667c-3.68278,9.47 -13.15278,10.52222 -13.15278,10.52222l-33.145,2.10444c-6.31333,-4.735 -9.47,-9.47 -9.47,-9.47z" fill="#bee6f1"/><path d="M383.13333,155.4202c-13.15278,7.36556 -21.04444,8.94389 -33.67111,12.62667l-13.67889,-31.04056l8.94389,-11.57444c1.57833,0 3.15667,0.52611 4.20889,1.05222c0,0 27.35778,18.94 34.19722,28.93611z" fill="#73b5e4"/><path d="M383.13333,155.94631c0,0 -0.52611,1.57833 -1.57833,3.68278c-1.05222,2.63056 -2.63056,5.78722 -4.20889,9.99611c-1.05222,2.10444 -2.10444,4.20889 -3.15667,6.31333c-1.05222,2.10444 -2.63056,4.735 -4.20889,7.36556c-2.63056,4.735 -6.31333,9.99611 -9.47,15.25722c-3.68278,4.735 -7.36556,9.99611 -10.52222,14.205c-3.68278,4.20889 -6.83944,8.41778 -9.99611,11.57444c-6.31333,6.83944 -10.52222,10.52222 -10.52222,10.52222c0,0 4.20889,-4.735 9.47,-11.57444c2.63056,-3.68278 5.78722,-7.89167 9.47,-12.10056c3.15667,-4.735 6.83944,-9.47 10.52222,-14.205c3.68278,-4.735 6.83944,-9.99611 9.47,-14.73111c3.15667,-4.735 5.78722,-9.47 7.89167,-13.15278c2.10444,-3.68278 4.20889,-7.36556 5.26111,-9.47c1.05222,-2.10444 1.57833,-3.68278 1.57833,-3.68278z" fill="#3b73e4"/><path d="M256.86667,165.41631c0,0 2.63056,0 6.31333,0.52611c3.68278,0.52611 8.41778,1.05222 13.15278,2.10444c4.735,1.05222 9.47,2.10444 13.15278,3.15667c3.68278,1.05222 5.78722,1.57833 5.78722,1.57833c0,0 -2.63056,0.52611 -6.31333,0c-3.68278,-0.52611 -8.41778,-1.05222 -13.15278,-2.10444c-4.735,-1.05222 -9.47,-2.10444 -13.15278,-3.15667c-3.68278,-1.05222 -5.78722,-2.10444 -5.78722,-2.10444z" fill="#bee6f1"/><path d="M301.58611,179.0952c0,0 1.57833,3.15667 3.15667,7.36556c2.10444,4.735 4.20889,10.52222 6.83944,16.30944c2.10444,5.78722 4.735,12.10056 6.31333,16.30944c1.05222,2.10444 1.57833,4.20889 2.63056,5.26111c1.05222,1.05222 1.05222,1.57833 1.05222,1.57833c0,0 -0.52611,-0.52611 -1.57833,-1.57833c-1.05222,-1.05222 -2.10444,-2.63056 -3.68278,-4.735c-2.63056,-4.20889 -5.26111,-9.99611 -7.89167,-16.30944c-2.63056,-6.31333 -4.20889,-12.10056 -5.78722,-16.83556c0,-4.20889 -1.05222,-7.36556 -1.05222,-7.36556z" fill="#bee6f1"/><path d="M344.72722,147.00243c2.63056,0 24.72722,4.735 37.35389,7.36556c0.52611,0.52611 0.52611,1.05222 1.05222,1.57833c-13.15278,7.36556 -21.04444,8.94389 -33.67111,12.62667l-8.94389,-21.04444c2.10444,0 3.68278,0 4.20889,-0.52611z" fill="#679fe4"/><path d="M340.51833,147.52854l8.94389,21.04444c-18.94,5.78722 -48.92833,5.26111 -48.92833,5.26111l1.57833,-22.62278c8.41778,-0.52611 29.46222,-2.63056 38.40611,-3.68278z" fill="#7cbfef"/></g></g></svg>