<svg version="1.1" xmlns="http://www.w3.org/2000/svg" xmlns:xlink="http://www.w3.org/1999/xlink" width="34.51041" height="22.69278" viewBox="0,0,34.51041,22.69278"><g transform="translate(-222.7448,-168.6536)"><g data-paper-data="{&quot;isPaintingLayer&quot;:true}" fill-rule="evenodd" stroke-miterlimit="10" stroke-dasharray="" stroke-dashoffset="0" style="mix-blend-mode: normal"><path d="M230.93399,184.91605c0.13593,0.21749 0.46215,0.65247 -0.59811,1.25057c-1.06023,0.59808 -2.96323,-0.13594 -3.18072,-0.2447c-1.00588,-0.43498 -1.95738,-1.03305 -2.74578,-1.79424c-2.66422,-2.63705 -0.97871,-6.11684 0.29904,-6.14401c1.30492,-0.02721 0.70684,2.3108 1.4952,4.32253c0.32625,0.7884 0.86995,1.44086 1.57679,1.93021c0.84277,0.62528 3.01765,0.43497 3.15358,0.67963z" fill="#f9a41f" stroke="none" stroke-width="1" stroke-linecap="butt" stroke-linejoin="miter"/><path d="M225.63275,179.50608c0.1359,0.84274 0.40777,2.39235 0.40777,2.39235c-0.51653,-0.21749 -1.06023,-0.27186 -1.60396,-0.16311c-0.76119,0.19028 -0.89712,1.16899 -1.16899,0.70681c-0.24466,-0.76119 -0.32625,-1.57675 -0.19031,-2.36515c0.19031,-1.06026 1.14182,-2.17487 1.7399,-2.06614c0.62528,0.13593 0.70684,0.62529 0.8156,1.49523z" fill="#ffffff" stroke="none" stroke-width="1" stroke-linecap="butt" stroke-linejoin="miter"/><path d="M230.93399,184.91605c0.13593,0.21749 0.46215,0.65247 -0.59811,1.25057c-1.06023,0.59808 -2.96323,-0.13594 -3.18072,-0.2447c-1.00588,-0.43498 -1.95738,-1.03305 -2.74578,-1.79424c-2.66422,-2.63705 -0.97871,-6.11684 0.29904,-6.14401c1.30492,-0.02721 0.70684,2.3108 1.4952,4.32253c0.32625,0.7884 0.86995,1.44086 1.57679,1.93021c0.84277,0.62528 3.01765,0.43497 3.15358,0.67963z" fill="none" stroke="#231f20" stroke-width="0.5" stroke-linecap="round" stroke-linejoin="round"/><path d="M248.19701,187.68904c1.87583,0.59808 5.38279,0.24466 6.66054,-0.08156c2.03894,-0.51656 2.47392,2.82733 -0.35342,3.3982c-2.85453,0.57091 -7.44893,-1.73989 -7.44893,-1.73989c-1.16899,-0.5437 -0.7612,-2.17486 1.14181,-1.57675z" fill="#f9a41f" stroke="none" stroke-width="1" stroke-linecap="butt" stroke-linejoin="miter"/><path d="M248.19701,187.68904c1.87583,0.59808 5.38279,0.24466 6.66054,-0.08156c2.03894,-0.51656 2.47392,2.82733 -0.35342,3.3982c-2.85453,0.57091 -7.44893,-1.73989 -7.44893,-1.73989c-1.16899,-0.5437 -0.7612,-2.17486 1.14181,-1.57675z" fill="none" stroke="#231f20" stroke-width="0.5" stroke-linecap="round" stroke-linejoin="round"/><path d="M233.76132,184.49614c-0.4078,-0.5437 -0.86995,-1.00585 -1.41368,-1.38648c-0.24466,-0.97868 -0.27186,-1.98456 -0.05437,-2.96327c0.84277,0.89715 1.57679,1.87583 2.20207,2.96327c0.5437,0.8156 0.05438,2.36519 -0.73401,1.38648z" fill="#231f20" stroke="#231f20" stroke-width="0.85738" stroke-linecap="round" stroke-linejoin="round" opacity="0.1"/><path d="M233.76132,184.4539c-2.28363,-2.90888 -3.99632,-1.68552 -5.30124,-3.01764c-1.06026,-1.06023 -0.40779,-3.39821 2.31078,-2.39236c1.87583,0.70684 3.69728,4.02353 3.69728,4.02353c0.57091,0.86995 0.08158,2.39235 -0.70681,1.38647z" fill="#f9a41f" stroke="none" stroke-width="1" stroke-linecap="butt" stroke-linejoin="miter"/><path d="M233.76132,184.4539c-2.28363,-2.90888 -3.99632,-1.68552 -5.30124,-3.01764c-1.06026,-1.06023 -0.40779,-3.39821 2.31078,-2.39236c1.87583,0.70684 3.69728,4.02353 3.69728,4.02353c0.57091,0.86995 0.08158,2.39235 -0.70681,1.38647z" fill="none" stroke="#231f20" stroke-width="0.5" stroke-linecap="round" stroke-linejoin="round"/><path d="M239.19849,188.58616c0,0 -3.0992,1.3593 -8.45481,1.49523c-5.21969,0.13593 -7.80236,-0.9515 -7.44894,-2.47391c0.4078,-1.84866 2.09332,-1.06026 3.20796,-0.84277c1.03305,0.13593 2.09328,0 3.07199,-0.43498l-0.02717,-1.41368c0.02717,-0.02717 9.97719,-1.46803 9.65098,3.67011z" fill="#f9a41f" stroke="none" stroke-width="1" stroke-linecap="butt" stroke-linejoin="miter"/><path d="M237.70326,187.68904c-0.21749,0.51653 -3.69728,1.4952 -5.70905,1.16899c-0.86995,-0.13593 -1.57676,-0.86996 -0.81557,-1.63118c1.14182,-1.16899 4.94782,-1.03305 4.94782,-1.03305z" fill="#ffffff" stroke="none" stroke-width="1" stroke-linecap="butt" stroke-linejoin="miter"/><path d="M239.19849,188.58616c0,0 -3.0992,1.3593 -8.45481,1.49523c-5.21969,0.13593 -7.80236,-0.67966 -7.44894,-2.47391c0.35342,-1.87583 2.09332,-1.03308 3.20796,-0.84277c0.97868,0.13593 1.95738,0.21749 2.93606,0.21749l0.10876,-2.06615c0.02717,-0.02717 9.97719,-1.46803 9.65098,3.67011z" fill="none" stroke="#231f20" stroke-width="0.5" stroke-linecap="round" stroke-linejoin="round"/><path d="M246.2668,173.38924l3.28951,-2.22921l0.10873,4.02349c1.00588,0.86995 1.76707,1.98459 2.17487,3.26231c0.67963,2.12049 0.21749,3.6429 0.21749,3.6429c0,0 1.76707,0.5709 1.57679,3.01764c-0.35342,4.67598 -6.3615,6.63337 -13.18515,4.64878c-5.13814,-1.4952 -8.50916,-5.65466 -7.47611,-9.75971c0.92433,-3.69728 2.99043,-4.67598 2.99043,-4.67598l0.62529,-6.41585l3.86039,3.96911c0.97868,-0.24466 2.01176,-0.32621 3.01764,-0.19028c0.9515,0.13593 1.87579,0.38059 2.80012,0.70681z" fill="#f9a41f" stroke="none" stroke-width="1" stroke-linecap="butt" stroke-linejoin="miter"/><path d="M252.0574,182.08872c1.03305,0.4078 1.57679,1.03308 1.57679,3.01764c0.02717,2.63702 -3.69727,7.313 -13.18515,4.64878c-3.23513,-0.89712 -6.47023,-3.0992 -4.4585,-7.23145c1.84866,-3.806 7.42176,-0.02717 9.95005,0c2.50108,0 3.72446,-1.38647 6.11681,-0.43497z" fill="#ffffff" stroke="none" stroke-width="1" stroke-linecap="butt" stroke-linejoin="miter"/><path d="M246.2668,173.38924l3.28951,-2.22921l0.10873,4.02349c1.00588,0.86995 1.76707,1.98459 2.17487,3.26231c0.67963,2.12049 0.21749,3.6429 0.21749,3.6429c0,0 1.76707,0.5709 1.57679,3.01764c-0.35342,4.67598 -6.3615,6.63337 -13.18515,4.64878c-5.13814,-1.4952 -8.50916,-5.65466 -7.47611,-9.75971c0.92433,-3.69728 2.99043,-4.67598 2.99043,-4.67598l0.62529,-6.41585l3.86039,3.96911c0.97868,-0.24466 2.01176,-0.32621 3.01764,-0.19028c0.9515,0.13593 1.87579,0.38059 2.80012,0.70681z" fill="none" stroke="#231f20" stroke-width="0.5" stroke-linecap="round" stroke-linejoin="round"/><path d="M240.44904,172.87272l0.35342,0.38063" fill="none" stroke="#231f20" stroke-width="0.85738" stroke-linecap="round" stroke-linejoin="round"/><g fill="none" stroke="#231f20" stroke-width="0.5" stroke-linecap="round" stroke-linejoin="round"><path d="M233.46228,181.61446c0,0 -1.22338,-0.10876 -1.84866,-0.21749c-0.65246,-0.13593 -1.30492,-0.29904 -1.95738,-0.51653"/><path d="M230.09122,177.53656c0.70684,0.35342 1.3593,0.76121 1.95738,1.22337c0.62528,0.46218 1.22337,1.00588 1.76707,1.57679"/></g><path d="M251.13307,178.30989c0.65246,1.68555 0.29904,3.39824 -0.73401,3.80604c-1.06023,0.40777 -2.41953,-0.65246 -3.07199,-2.33798c-0.65246,-1.68555 -0.29904,-3.39823 0.73401,-3.80604c1.03305,-0.43498 2.41953,0.65246 3.07199,2.33798z" fill="#ffffff" stroke="#231f20" stroke-width="0.5" stroke-linecap="round" stroke-linejoin="round"/><path d="M250.58937,179.23422c0,0.32625 -0.29904,0.59808 -0.62529,0.59808c-0.32621,0 -0.59808,-0.29904 -0.59808,-0.62526c0,-0.32625 0.24465,-0.57091 0.5709,-0.59812c0.35342,0 0.65247,0.29908 0.65247,0.62529v0" fill="#231f20" stroke="none" stroke-width="1" stroke-linecap="butt" stroke-linejoin="miter"/><path d="M242.95012,177.65743c0.65246,1.68555 0.16314,3.45262 -1.08743,3.91477c-1.25054,0.46218 -2.80013,-0.51653 -3.42541,-2.20204c-0.65246,-1.71273 -0.16311,-3.45262 1.08743,-3.91477c1.25054,-0.46215 2.80016,0.51653 3.42541,2.20204z" fill="#ffffff" stroke="#231f20" stroke-width="0.5" stroke-linecap="round" stroke-linejoin="round"/><path d="M242.32487,178.66331c-0.10876,0.32625 -0.43498,0.51653 -0.76123,0.40779c-0.32621,-0.10876 -0.51652,-0.43497 -0.40776,-0.76122c0.08156,-0.29904 0.40777,-0.48932 0.70681,-0.40776c0.35342,0.05435 0.57091,0.40777 0.46218,0.76119v0" fill="#231f20" stroke="none" stroke-width="1" stroke-linecap="butt" stroke-linejoin="miter"/><g stroke="#231f20" stroke-width="0.5" stroke-linecap="round" stroke-linejoin="round"><path d="M245.83183,181.70813c0.57091,0.05438 1.63117,-0.05438 1.57679,0.62528c-0.05438,0.29904 -0.84277,1.30492 -1.49523,1.19617c-0.65246,-0.10873 -1.71269,-1.08744 -1.54959,-1.60397c0.16311,-0.51653 0.9515,-0.27186 1.46803,-0.21748z" fill="#231f20"/><path d="M247.87077,185.40541c-0.08156,0.67967 -4.56723,0.32625 -4.40409,-0.5437" fill="none"/></g><path d="M231.6408,185.69234c-0.21749,0.97868 -1.5224,1.68552 -2.88168,1.57679c-1.3593,-0.10876 -2.25643,-0.97871 -2.01176,-1.95739c0.24466,-0.97871 1.52241,-1.68554 2.88171,-1.60396c1.35927,0.10873 2.25643,1.00585 2.01173,1.98456z" fill="#f9a41f" stroke="none" stroke-width="1" stroke-linecap="butt" stroke-linejoin="miter"/><path d="M231.6408,185.69234c-0.21749,0.97868 -1.5224,1.68552 -2.88168,1.57679c-1.3593,-0.10876 -2.25643,-0.97871 -2.01176,-1.95739c0.24466,-0.97871 1.52241,-1.68554 2.88171,-1.60396c1.35927,0.10873 2.25643,1.00585 2.01173,1.98456z" fill="none" stroke="#231f20" stroke-width="0.5" stroke-linecap="round" stroke-linejoin="round"/><g fill="none" stroke="#231f20" stroke-width="0.5" stroke-linecap="round" stroke-linejoin="round"><path d="M257.00522,183.43591c-0.51653,0.27186 -1.08743,0.43497 -1.68551,0.51653c-0.81557,0.05438 -1.60396,0.08156 -2.39236,0.02717"/><path d="M255.97217,186.61666c-0.51653,-0.02721 -1.03305,-0.10876 -1.54958,-0.21749c-0.65246,-0.16314 -1.25057,-0.38063 -1.82145,-0.67967"/></g></g></g></svg>