<svg version="1.1" xmlns="http://www.w3.org/2000/svg" xmlns:xlink="http://www.w3.org/1999/xlink" width="78.1211" height="68.87349" viewBox="0,0,78.1211,68.87349"><g transform="translate(-270.42784,-135.42746)"><g data-paper-data="{&quot;isPaintingLayer&quot;:true}" fill-rule="nonzero" stroke="none" stroke-linecap="butt" stroke-linejoin="miter" stroke-miterlimit="10" stroke-dasharray="" stroke-dashoffset="0" style="mix-blend-mode: normal"><text transform="translate(297.42001,157.17746) scale(0.5,0.5)" font-size="40" xml:space="preserve" fill="#ffffff" fill-rule="nonzero" stroke="none" stroke-width="1" stroke-linecap="butt" stroke-linejoin="miter" stroke-miterlimit="10" stroke-dasharray="" stroke-dashoffset="0" font-family="Sans Serif" font-weight="normal" text-anchor="start" style="mix-blend-mode: normal"><tspan x="0" dy="0">Item</tspan></text><text transform="translate(271.69179,172.46674) scale(0.35306,0.35306)" font-size="40" xml:space="preserve" fill="#644f00" fill-rule="nonzero" stroke="none" stroke-width="1" stroke-linecap="butt" stroke-linejoin="miter" stroke-miterlimit="10" stroke-dasharray="" stroke-dashoffset="0" font-family="Sans Serif" font-weight="normal" text-anchor="start" style="mix-blend-mode: normal"><tspan x="0" dy="0">Jar of</tspan><tspan x="0" dy="48px">Latex</tspan></text><text transform="translate(308.5528,201.40908) scale(0.23135,0.23135)" font-size="40" xml:space="preserve" fill="#ffffff" fill-rule="nonzero" stroke="none" stroke-width="1" stroke-linecap="butt" stroke-linejoin="miter" stroke-miterlimit="10" stroke-dasharray="" stroke-dashoffset="0" font-family="Sans Serif" font-weight="normal" text-anchor="start" style="mix-blend-mode: normal"><tspan x="0" dy="0">:fear:</tspan></text><path d="M346.98818,177.97125c0,0.3367 -0.09069,0.58271 -0.22322,0.76245c0.1112,2.47777 0.44732,4.93804 1.04934,7.42548c0.52372,2.16392 1.64182,4.0853 -0.67061,6.0693c-0.27184,0.23324 -5.23525,-0.3229 -5.7312,-0.32814c-6.17102,-0.0651 -12.31305,-0.50705 -18.50414,-0.5071c-2.45828,-0.02974 -5.78465,0.49597 -7.43437,-1.92807c-0.59659,-0.8766 -0.1479,-4.72841 -0.1479,-5.6615c0,-7.21662 0.83371,-14.70322 3.37617,-21.48633c0,0 0.4389,-1.17042 1.60931,-0.73151c0.55652,0.2087 0.74919,0.58279 0.7982,0.91779c0.85053,-0.95677 1.90823,-2.25239 2.84905,-2.67731c1.06872,-0.48269 4.00691,-0.34735 5.0787,-0.34874c3.80807,-0.00494 7.5938,0.25154 11.37707,0.25359c2.05692,0.00111 5.93284,-0.24597 7.56657,1.22859c0.51183,0.46196 0.22633,1.36231 0.27495,2.05007c0.21767,3.07907 -0.46196,6.21452 -1.29447,9.1557c-0.16611,1.68433 -0.24923,3.34386 -0.23745,4.99155c0.15434,0.18339 0.26399,0.44396 0.26399,0.81418zM339.53789,179.72318c-2.14761,-0.20982 -3.88903,-1.26105 -6.2253,-1.26268c-2.77238,-0.00194 -5.56278,0.89293 -8.35106,0.48461c-2.10432,-0.30817 -4.70132,-1.68275 -6.72963,-2.3166c0,0 -0.05759,-0.018 -0.14352,-0.05874c-0.17746,1.91674 -0.26231,3.83045 -0.26231,5.7124c0,1.22013 -0.72465,5.07769 -0.14791,6.00335c0.68405,1.09788 4.27129,0.59678 5.24481,0.60776c5.52454,-0.00005 10.94128,0.14968 16.44971,0.45879c1.48444,0.0833 2.97715,-0.05359 4.45999,0.05444c0.70907,0.05166 1.52694,1.19096 2.02149,0.6802c0.87646,-0.90518 -0.87123,-4.93577 -1.03964,-5.82859c-0.31409,-1.66507 -0.49421,-3.34038 -0.56996,-5.02014c-1.53351,0.10117 -3.30712,0.62193 -4.70668,0.48519zM318.97758,174.24232c1.92386,0.60121 4.46366,1.97277 6.45671,2.24791c2.59935,0.35884 5.27956,-0.52811 7.87829,-0.52972c2.3677,-0.00146 4.31601,1.05067 6.45387,1.27315c1.27166,0.13234 2.98847,-0.37802 4.43875,-0.49078c0.02025,-1.68082 0.13003,-3.36321 0.29987,-5.04142c0.63551,-2.28032 1.16429,-4.58683 1.25202,-6.96648c0.02119,-0.57467 -0.07171,-1.15447 -0.00099,-1.72516c0.02288,-0.18464 0.44527,-0.41089 0.27495,-0.48576c-2.09292,-0.92007 -5.74342,-0.14794 -8.00347,-0.29716c-2.99597,-0.19781 -5.9669,-0.24519 -8.99007,-0.24933c-0.79066,-0.00108 -3.31618,-0.18809 -4.12198,0.15843c-0.79665,0.34258 -2.07467,2.20737 -2.70236,2.83247c-0.54638,0.40551 -1.25799,0.89575 -1.91309,0.71188l1.13975,0.97789c0,0 0.6625,1.06 -0.3975,1.7225c-0.73975,0.46234 -1.28589,0.08577 -1.54838,-0.18397c-0.49261,1.96929 -0.86909,3.98226 -1.1386,6.00504c0.33594,-0.04897 0.62225,0.0405 0.62225,0.0405z" fill="#ffffff" stroke-width="0.5"/><path d="M344.292,179.22218c0.07574,1.67976 0.25833,3.37418 0.57242,5.03925c0.16841,0.89282 1.91137,4.94157 1.03491,5.84675c-0.49455,0.51075 -1.31283,-0.6277 -2.0219,-0.67935c-1.48284,-0.10803 -2.98096,0.0374 -4.4654,-0.0459c-5.50843,-0.3091 -11.00699,-0.46331 -16.53153,-0.46326c-0.97352,-0.01099 -4.56552,0.48013 -5.24957,-0.61775c-0.57675,-0.92566 0.1453,-4.80358 0.1453,-6.02371c0,-1.88195 0.08994,-3.81399 0.2674,-5.73073c0.08592,0.04074 0.14353,0.05871 0.14353,0.05871c2.0283,0.63385 4.62817,2.00344 6.73249,2.31161c2.78828,0.40832 5.63541,-0.50696 8.40779,-0.50502c2.33628,0.00163 4.10803,1.07922 6.25564,1.28904c1.39956,0.13673 3.1754,-0.37846 4.70891,-0.47962z" data-paper-data="{&quot;noHover&quot;:false,&quot;origItem&quot;:[&quot;Path&quot;,{&quot;applyMatrix&quot;:true,&quot;segments&quot;:[[[339.53789,179.72318],[1.39956,0.13673],[-2.14761,-0.20982]],[[333.31259,178.4605],[2.33628,0.00163],[-2.77238,-0.00194]],[[324.96153,178.94511],[2.78828,0.40832],[-2.10432,-0.30817]],[[318.2319,176.62852],[2.0283,0.63385],[0,0]],[[318.08838,176.56978],[0.08592,0.04074],[-0.17746,1.91674]],[[317.82607,182.28217],[0,-1.88195],[0,1.22013]],[[317.67816,188.28552],[-0.57675,-0.92566],[0.68405,1.09788]],[[322.92297,188.89328],[-0.97352,-0.01099],[5.52454,-0.00005]],[[339.37269,189.35207],[-5.50843,-0.3091],[1.48444,0.0833]],[[343.83268,189.40651],[-1.48284,-0.10803],[0.70907,0.05166]],[[345.85417,190.08671],[-0.49455,0.51075],[0.87646,-0.90518]],[[344.81453,184.25813],[0.16841,0.89282],[-0.31409,-1.66507]],[[344.24457,179.23799],[0.07574,1.67976],[-1.53351,0.10117]]],&quot;closed&quot;:true}]}" fill="#d699ff" stroke-width="0.5"/></g></g></svg>