<svg version="1.1" xmlns="http://www.w3.org/2000/svg" xmlns:xlink="http://www.w3.org/1999/xlink" width="58" height="58" viewBox="0,0,58,58"><g transform="translate(-391.25,-195)"><g data-paper-data="{&quot;isPaintingLayer&quot;:true}" fill-rule="nonzero" stroke="none" stroke-linecap="butt" stroke-linejoin="miter" stroke-miterlimit="10" stroke-dasharray="" stroke-dashoffset="0" style="mix-blend-mode: normal"><path d="M391.25,224c0,-16.01626 12.98374,-29 29,-29c16.01626,0 29,12.98374 29,29c0,16.01626 -12.98374,29 -29,29c-16.01626,0 -29,-12.98374 -29,-29z" fill="#ff0000" stroke-width="0"/><path d="M430.99035,225.42061c-2.17061,1.24035 -3.41096,-0.93026 -3.41096,-0.93026l-1.17888,-2.13599c-1.03978,-2.86653 -2.88939,-7.16264 -3.6487,-11.28772c-0.40574,-0.46669 -0.67999,-1.16172 -0.42717,-2.17298c0.03238,-0.12951 0.06994,-0.25037 0.11204,-0.36315c-0.18575,-3.30626 0.65105,-6.2657 3.59578,-7.964c2.69388,-1.55363 4.21304,-1.28985 6.96753,-1.31651c0,0 2.5,0 2.5,2.5c0,2.5 -2.5,2.5 -2.5,2.5c-1.23785,-0.01616 -4.931,-0.25892 -5.51474,1.36965c-0.13634,0.38037 -0.08553,1.23865 0.02418,2.11686c2.76357,1.09723 4.63041,2.50678 7.29174,4.1288c1.95359,1.19066 4.63352,2.38717 5.96714,4.40944c1.07343,1.62772 1.59889,3.55674 2.39833,5.33511c0.52373,4.87362 0.57471,9.55751 -2.38171,13.8424c-2.05322,2.97584 -5.82751,4.78231 -9.14752,5.71513c-3.63188,1.02044 -7.31824,0.47746 -10.98336,0.33079c-4.7804,-0.19131 -9.00743,-0.47343 -13.37887,-2.81875c-6.95085,-3.72919 -8.67511,-13.546 -4.6149,-20.05168c0.81769,-1.31019 2.32617,-2.03219 3.48925,-3.04829c0,0 1.92055,-1.60046 3.52101,0.32009c1.60046,1.92055 -0.32009,3.52101 -0.32009,3.52101c-0.83692,0.65057 -1.94054,1.05811 -2.51075,1.95171c-2.49992,3.91773 -1.38097,8.6806 1.44849,11.88064c2.9133,3.29486 8.62323,3.09163 12.55774,3.24894c6.76951,0.27065 15.4809,0.70224 17.41165,-7.68622c0.49964,-2.17076 0.25686,-3.86361 0.07576,-5.92546c-0.53389,-1.22163 -0.87889,-2.54462 -1.60167,-3.66489c-0.73508,-1.13934 -3.6824,-2.57357 -4.53286,-3.09056c-1.21864,-0.74082 -2.22076,-1.44658 -3.23252,-2.08481c0.63706,2.22702 1.34776,4.44163 2.13318,6.59575l0.82112,1.36401c0,0 1.24035,2.17061 -0.93026,3.41096z" fill="#000000" stroke-width="0.5"/></g></g></svg>