<svg version="1.1" xmlns="http://www.w3.org/2000/svg" xmlns:xlink="http://www.w3.org/1999/xlink" width="117.23874" height="117.23874" viewBox="0,0,117.23874,117.23874"><g transform="translate(-261.38063,-121.38063)"><g data-paper-data="{&quot;isPaintingLayer&quot;:true}" fill-rule="nonzero" stroke="none" stroke-linecap="butt" stroke-linejoin="miter" stroke-miterlimit="10" stroke-dasharray="" stroke-dashoffset="0" style="mix-blend-mode: normal"><path d="M261.38063,180c0,-32.37458 26.24478,-58.61937 58.61937,-58.61937c32.37458,0 58.61937,26.24478 58.61937,58.61937c0,32.37458 -26.24478,58.61937 -58.61937,58.61937c-32.37458,0 -58.61937,-26.24478 -58.61937,-58.61937z" fill="#40ff00" stroke-width="0"/><path d="M299.99977,157.19703c-0.00424,7.33748 -0.16965,14.87592 0.426,22.18904c0.31911,3.91785 1.33629,7.29161 1.93463,11.12233c0.47748,3.05697 0.78271,6.46898 0.67775,9.56728c-0.04028,1.1892 0.09399,2.41547 -0.22147,3.56277c-0.12831,0.46665 -1.45436,1.26154 -1.03744,1.01576c4.8872,-2.88108 10.59362,-4.33685 15.65244,-7.10484c6.17073,-2.87098 11.7804,-7.00394 16.81937,-11.56384c1.55969,-1.41141 3.20256,-2.72852 4.77593,-4.12465c0.58178,-0.51624 1.01526,-1.20525 1.66098,-1.63887c0.23377,-0.15698 1.09613,0.08162 0.84366,-0.04308c-4.69497,-2.31896 -9.5977,-4.30106 -14.08179,-7.14681c-8.01186,-5.08459 -15.51097,-10.56064 -24.18515,-14.5844c-1.0913,-0.40877 -2.18024,-0.82434 -3.2649,-1.25069zM295.2407,155.91566c-0.7112,-0.21851 -1.92563,-0.85387 -1.74822,-2.62802c0.24876,-2.48759 2.73636,-2.23883 2.73636,-2.23883l2.88387,0.39701c2.01085,0.8382 4.04348,1.62418 6.08305,2.38987c11.10922,5.15207 20.6966,12.61398 31.35161,18.50949c2.05755,1.13846 9.00499,4.70557 9.84327,6.65479c0.8749,2.03437 -2.76154,5.4323 -4.00862,6.56818c-6.89349,6.27878 -14.20207,12.46888 -22.69488,16.44361c-4.44978,2.41997 -10.2757,5.39523 -15.2371,6.26078c-1.97672,0.34485 -4.41388,1.2993 -6.01896,0.09512c-1.7425,-1.30728 -0.22001,-8.63513 -0.38621,-10.80973c-0.4592,-6.00846 -2.11091,-11.75487 -2.60251,-17.76512c-0.61417,-7.50878 -0.44107,-15.25198 -0.4425,-22.78268c0,0 0,-0.5254 0.24086,-1.09448z" fill="#ffe000" stroke-width="0.5"/><path d="M303.10291,158.54444c8.67418,4.02376 16.23622,9.50104 24.24809,14.58563c4.4841,2.84575 9.40456,4.86422 14.09954,7.18318c0.25247,0.1247 -0.60989,-0.11388 -0.84366,0.04311c-0.64571,0.43362 -1.07923,1.12695 -1.661,1.64319c-1.57337,1.39613 -3.21935,2.72825 -4.77904,4.13966c-5.03897,4.5599 -10.70536,8.72436 -16.87608,11.59535c-5.05881,2.76799 -10.78663,4.21376 -15.67383,7.09484c-0.41692,0.24578 0.90937,-0.54892 1.03768,-1.01557c0.31547,-1.1473 0.17822,-2.37611 0.2185,-3.56531c0.10496,-3.0983 -0.21064,-6.52393 -0.68812,-9.58091c-0.59834,-3.83073 -1.621,-7.23135 -1.94011,-11.14919c-0.59566,-7.31313 -0.4133,-14.88537 -0.40906,-22.22285c1.08465,0.42636 2.1758,0.8401 3.26711,1.24887z" data-paper-data="{&quot;noHover&quot;:false,&quot;origItem&quot;:[&quot;Path&quot;,{&quot;applyMatrix&quot;:true,&quot;segments&quot;:[[[600.92622,311.30862],[2.16931,0.85271],[-0.00848,14.67497]],[[601.77822,355.68671],[-1.19131,-14.62625],[0.63822,7.8357]],[[605.64748,377.93137],[-1.19667,-7.66145],[0.95496,6.11394]],[[607.00297,397.06593],[0.20992,-6.19659],[-0.08057,2.3784]],[[606.56002,404.19146],[0.63093,-2.2946],[-0.25662,0.9333]],[[604.48514,406.22298],[-0.83383,0.49156],[9.77439,-5.76215]],[[635.79001,392.0133],[-10.11763,5.53598],[12.34145,-5.74197]],[[669.42876,368.88563],[-10.07794,9.11979],[3.11938,-2.82281]],[[678.98062,360.63633],[-3.14675,2.79226],[1.16356,-1.03248]],[[682.30258,357.35858],[-1.29143,0.86724],[0.46753,-0.31397]],[[683.9899,357.27243],[0.50494,0.2494],[-9.38994,-4.63793]],[[655.82631,342.97881],[8.96819,5.6915],[-16.02372,-10.16918]],[[607.45601,313.81001],[17.34836,8.04753],[-2.18261,-0.81754]]],&quot;closed&quot;:true}]}" fill="#00ffc3" stroke-width="0.5"/><text transform="translate(296.87764,225.81066) scale(0.5,0.5)" font-size="40" xml:space="preserve" fill="#000000" fill-rule="nonzero" stroke="none" stroke-width="1" stroke-linecap="butt" stroke-linejoin="miter" stroke-miterlimit="10" stroke-dasharray="" stroke-dashoffset="0" font-family="&quot;Pusab&quot;, Sans Serif" font-weight="normal" text-anchor="start" style="mix-blend-mode: normal"><tspan x="0" dy="0">play</tspan></text></g></g></svg>