<svg version="1.1" xmlns="http://www.w3.org/2000/svg" xmlns:xlink="http://www.w3.org/1999/xlink" width="60.75" height="58" viewBox="0,0,60.75,58"><g transform="translate(-190.5,-196)"><g data-paper-data="{&quot;isPaintingLayer&quot;:true}" fill-rule="nonzero" stroke="none" stroke-linecap="butt" stroke-linejoin="miter" stroke-miterlimit="10" stroke-dasharray="" stroke-dashoffset="0" style="mix-blend-mode: normal"><path d="M190.5,225c0,-16.01626 12.98374,-29 29,-29c16.01626,0 29,12.98374 29,29c0,16.01626 -12.98374,29 -29,29c-16.01626,0 -29,-12.98374 -29,-29z" fill="#ff0000" stroke-width="0"/><path d="M202,213.75c0,-1.38071 1.11929,-2.5 2.5,-2.5c1.38071,0 2.5,1.11929 2.5,2.5c0,1.38071 -1.11929,2.5 -2.5,2.5c-1.38071,0 -2.5,-1.11929 -2.5,-2.5z" fill="#000000" stroke-width="0.5"/><path d="M242.75,214.75c0,2.5 -2.5,2.5 -2.5,2.5h-2.75c-6.22061,0 -12.4266,0.08996 -18.63868,-0.25385c0,0 -2.49615,-0.13868 -2.35748,-2.63483c0.13868,-2.49615 2.63483,-2.35748 2.63483,-2.35748c6.11895,0.34127 12.23374,0.24615 18.36132,0.24615h2.75c0,0 2.5,0 2.5,2.5z" fill="#000000" stroke-width="0.5"/><path d="M200.5,228c0,-1.38071 1.11929,-2.5 2.5,-2.5c1.38071,0 2.5,1.11929 2.5,2.5c0,1.38071 -1.11929,2.5 -2.5,2.5c-1.38071,0 -2.5,-1.11929 -2.5,-2.5z" fill="#000000" stroke-width="0.5"/><path d="M251.25,230.5c0,2.5 -2.5,2.5 -2.5,2.5l-1.7777,-0.00015c-9.05614,-0.10445 -18.067,-2.28952 -27.0613,-0.78386c0,0 -2.46598,0.411 -2.87698,-2.05499c-0.411,-2.46598 2.05499,-2.87698 2.05499,-2.87698c9.34566,-1.55119 18.54742,0.61653 27.9387,0.71614l1.7223,-0.00015c0,0 2.5,0 2.5,2.5z" fill="#000000" stroke-width="0.5"/><path d="M203.25,240c0,-1.38071 1.11929,-2.5 2.5,-2.5c1.38071,0 2.5,1.11929 2.5,2.5c0,1.38071 -1.11929,2.5 -2.5,2.5c-1.38071,0 -2.5,-1.11929 -2.5,-2.5z" fill="#000000" stroke-width="0.5"/><path d="M234.75,243.25c0,2.5 -2.5,2.5 -2.5,2.5l-1.86132,-0.00385c-4.05279,0.22514 -8.03515,0.4438 -12.05827,0.98192c0,0 -2.47807,0.33041 -2.80848,-2.14766c-0.33041,-2.47807 2.14766,-2.80848 2.14766,-2.80848c4.15098,-0.55179 8.26097,-0.7858 12.44173,-1.01808l2.13868,-0.00385c0,0 2.5,0 2.5,2.5z" fill="#000000" stroke-width="0.5"/></g></g></svg>