<svg version="1.1" xmlns="http://www.w3.org/2000/svg" xmlns:xlink="http://www.w3.org/1999/xlink" width="117.23874" height="117.23874" viewBox="0,0,117.23874,117.23874"><g transform="translate(-261.38067,-121.38068)"><g data-paper-data="{&quot;isPaintingLayer&quot;:true}" fill-rule="nonzero" stroke="none" stroke-linecap="butt" stroke-linejoin="miter" stroke-miterlimit="10" stroke-dasharray="" stroke-dashoffset="0" style="mix-blend-mode: normal"><path d="M261.38067,180.00005c0,-32.37458 26.24478,-58.61937 58.61937,-58.61937c32.37458,0 58.61937,26.24478 58.61937,58.61937c0,32.37458 -26.24478,58.61937 -58.61937,58.61937c-32.37458,0 -58.61937,-26.24478 -58.61937,-58.61937z" fill="#40ff00" stroke-width="0"/><text transform="translate(302.05221,222.51761) scale(0.37769,0.37769)" font-size="40" xml:space="preserve" fill="#000000" fill-rule="nonzero" stroke="none" stroke-width="1" stroke-linecap="butt" stroke-linejoin="miter" stroke-miterlimit="10" stroke-dasharray="" stroke-dashoffset="0" font-family="&quot;Pusab&quot;, Sans Serif" font-weight="normal" text-anchor="start" style="mix-blend-mode: normal"><tspan x="0" dy="0">help</tspan></text><path d="M321.01238,180.18613c-2.5,0 -2.5,-2.5 -2.5,-2.5v-0.86772c0,-4.7304 -1.78232,-11.96883 3.36679,-14.65302c1.52908,-0.7971 3.38152,-0.67757 5.07228,-1.01636c3.82739,-1.42934 6.08353,-2.46098 8.34545,-6.05007c0.89669,-1.42282 0.55318,-2.70033 0.30818,-4.23145c-0.79374,-4.9605 -3.50853,-8.7112 -8.7493,-9.85098c-7.30675,-1.58909 -15.49294,1.33588 -22.27443,3.77634c-3.93393,1.41571 -7.41788,2.47403 -10.5575,5.27218c0,0 -1.88144,1.64626 -3.5277,-0.23518c-1.64626,-1.88144 0.23518,-3.5277 0.23518,-3.5277c3.68465,-3.17719 7.60563,-4.5749 12.15643,-6.21374c8.78288,-3.16291 20.93949,-7.36494 29.79494,-2.16417c6.04002,3.54728 10.85583,12.76965 7.01856,19.54147c-2.77574,4.89848 -6.44202,6.5791 -11.41208,8.50101c-1.36474,0.21 -2.7649,0.25648 -4.09422,0.63001c-0.37261,0.1047 -0.80018,0.38555 -0.87288,0.7657c-0.4886,2.55481 0.1903,6.89967 0.1903,9.45594v0.86772c0,0 0,2.5 -2.5,2.5z" fill="#ff0000" stroke-width="0.5"/><path d="M320.53706,194.46207c0,-1.38071 1.11929,-2.5 2.5,-2.5c1.38071,0 2.5,1.11929 2.5,2.5c0,1.38071 -1.11929,2.5 -2.5,2.5c-1.38071,0 -2.5,-1.11929 -2.5,-2.5z" fill="#ff0000" stroke-width="0.5"/></g></g></svg>