<svg version="1.1" xmlns="http://www.w3.org/2000/svg" xmlns:xlink="http://www.w3.org/1999/xlink" width="116.84259" height="69.38066" viewBox="0,0,116.84259,69.38066"><g transform="translate(-261.69519,-135.42746)"><g data-paper-data="{&quot;isPaintingLayer&quot;:true}" fill-rule="nonzero" stroke="none" stroke-linecap="butt" stroke-linejoin="miter" stroke-miterlimit="10" stroke-dasharray="" stroke-dashoffset="0" style="mix-blend-mode: normal"><text transform="translate(297.42001,157.17746) scale(0.5,0.5)" font-size="40" xml:space="preserve" fill="#ffffff" fill-rule="nonzero" stroke="none" stroke-width="1" stroke-linecap="butt" stroke-linejoin="miter" stroke-miterlimit="10" stroke-dasharray="" stroke-dashoffset="0" font-family="Sans Serif" font-weight="normal" text-anchor="start" style="mix-blend-mode: normal"><tspan x="0" dy="0">Item</tspan></text><text transform="translate(264.84503,172.21316) scale(0.35306,0.35306)" font-size="40" xml:space="preserve" fill="#1dff00" fill-rule="nonzero" stroke="none" stroke-width="1" stroke-linecap="butt" stroke-linejoin="miter" stroke-miterlimit="10" stroke-dasharray="" stroke-dashoffset="0" font-family="Sans Serif" font-weight="normal" text-anchor="start" style="mix-blend-mode: normal"><tspan x="0" dy="0">Browser</tspan><tspan x="0" dy="48px">hacker</tspan></text><text transform="translate(261.81086,201.91625) scale(0.23135,0.23135)" font-size="40" xml:space="preserve" fill="#ffffff" fill-rule="nonzero" stroke="none" stroke-width="1" stroke-linecap="butt" stroke-linejoin="miter" stroke-miterlimit="10" stroke-dasharray="" stroke-dashoffset="0" font-family="Sans Serif" font-weight="normal" text-anchor="start" style="mix-blend-mode: normal"><tspan x="0" dy="0">Opens a link for your foes!</tspan></text><g stroke-width="0.5"><path d="M364.00726,173.05462c-0.72579,0 -1.46269,0 -2.2057,0c-0.00034,0 -0.00051,0 -0.00051,0h-0.88248c-1.17087,0 -2.34986,0.00575 -3.53194,0c-1.11612,0 -2.22407,0 -3.3073,0c0,0 -0.16514,0 -0.36671,-0.07397c-0.01964,-0.0008 -0.03927,-0.0016 -0.05891,-0.00242c0.9633,0.82057 1.78514,1.76501 2.12312,2.75583c0.22957,0.67302 -0.06052,1.45047 -0.19153,2.15751c-0.01582,0.0854 -0.0326,0.16908 -0.0503,0.25108c0.14231,0.42697 0.02723,0.8679 0.02723,0.8679c-0.97378,3.73017 -1.8068,7.49775 -2.87801,11.19378l-0.04166,0.0981c0.35204,0.00693 0.69816,0.01728 1.03727,0.03262c5.56033,0.25165 9.6165,1.26166 12.87038,-4.85466c1.40449,-4.73829 0.27146,-9.01933 -2.1033,-12.52926c-0.23308,0.10348 -0.43964,0.10348 -0.43964,0.10348zM351.83752,163.89042c-2.44431,-0.71278 -5.23547,-0.67266 -7.74992,-1.08635c-0.69399,-0.05927 -1.39061,-0.12242 -2.0866,-0.19681c-0.19684,0.06085 -0.38226,0.1346 -0.5538,0.22329c-2.68265,1.38679 -4.6817,4.03411 -5.96101,7.18254l0.05164,0.03079c2.5237,2.22021 5.56505,3.64962 8.32548,5.54178c0.14601,-1.59217 0.63556,-3.32024 1.25432,-4.11931l-0.12886,-0.06518c0,0 -0.9727,-0.55902 -0.48635,-1.67705c0.48635,-1.11803 1.45906,-0.55902 1.45906,-0.55902l0.16817,0.14589c0.73688,0.17095 1.44643,0.39959 2.1512,0.65353c2.8182,0.46356 5.7029,0.56976 8.57302,0.59011c1.89337,0 3.78674,0 5.68011,0c-3.04075,-3.27472 -7.10544,-5.61702 -10.69646,-6.6642zM350.23856,190.26436l0.38224,-0.8506c0.75705,-2.60883 1.39302,-5.2543 2.04471,-7.89675c-1.08741,0.23903 -2.37783,0.04275 -3.73346,-0.39415c-0.87937,-0.28341 -2.66344,-0.87463 -3.8375,-1.73398c-0.28663,-0.06716 -0.49256,-0.24468 -0.49256,-0.24468c-3.07437,-2.65243 -6.79479,-4.22177 -9.92668,-6.73529c-1.10175,3.9924 -1.16776,8.43239 -0.13677,12.03285c3.38544,5.8353 9.95074,5.85374 15.68999,5.84759c0.00624,-0.01628 0.01004,-0.025 0.01004,-0.025zM333.03014,169.97768c0.07352,-0.169 0.15814,-0.29968 0.24884,-0.39977c1.08499,-2.94988 2.71744,-5.56708 4.88734,-7.42069c-0.39734,-0.36427 -0.39734,-1.00312 -0.39734,-1.00312l1.2663,-1.48657c0.93506,0.1824 1.88673,0.31459 2.84081,0.42073c2.15661,-0.46282 4.92666,0.06943 6.90834,0.06943c0,0 0.94709,-0.00001 1.07361,1.01587c3.07966,0.5304 6.0778,1.28512 9.00915,2.99877c6.86189,4.01139 12.21065,13.42424 9.65699,22.35786c-1.11623,2.13037 -2.31073,4.07499 -4.21783,5.39122c-3.07719,2.12379 -7.34741,1.06545 -10.71,0.9118c-7.434,-0.33969 -16.27115,0.88172 -21.01168,-7.29306c-1.31501,-4.49504 -1.19667,-10.02458 0.31455,-14.84582c-0.01936,-0.2058 0.01262,-0.44469 0.13092,-0.71664zM349.44232,173.05212c-0.73959,-0.01566 -1.48113,-0.09727 -2.21719,-0.02005c-1.04414,0.10953 -1.44756,3.07962 -1.21854,4.04595c0.19527,0.82393 1.39003,0.60379 2.07997,0.92054c0.71011,0.32601 4.62671,2.04861 5.17689,0.84067c1.31915,-2.8962 -1.77635,-4.77894 -3.82113,-5.78711z" fill="#ffffff"/><path d="M353.29954,178.86714c-0.55018,1.20793 -4.53411,-0.50778 -5.24421,-0.83378c-0.68995,-0.31675 -1.89596,-0.12071 -2.09123,-0.94463c-0.22902,-0.96633 0.18708,-3.98354 1.23122,-4.09308c0.73606,-0.07721 1.50225,-0.00884 2.24184,0.00682c2.04478,1.00817 5.18153,2.96847 3.86238,5.86467z" data-paper-data="{&quot;noHover&quot;:false,&quot;origItem&quot;:[&quot;Path&quot;,{&quot;applyMatrix&quot;:true,&quot;segments&quot;:[[[349.44232,173.05212],[2.04478,1.00817],[-0.73959,-0.01566]],[[347.22512,173.03206],[0.73606,-0.07721],[-1.04414,0.10953]],[[346.00659,177.07802],[-0.22902,-0.96633],[0.19527,0.82393]],[[348.08656,177.99856],[-0.68995,-0.31675],[0.71011,0.32601]],[[353.26345,178.83923],[-0.55018,1.20793],[1.31915,-2.8962]]],&quot;closed&quot;:true}]}" fill="#0044ff"/><path d="M362.57729,170.55929c-1.89337,0 -3.78711,0.00331 -5.68048,0.00331c-2.87011,-0.02036 -5.82798,-0.09857 -8.64618,-0.56213c-0.70478,-0.25394 -1.42751,-0.51532 -2.16439,-0.68627l-0.16825,-0.14815c0,0 -0.88603,-0.56601 -1.37238,0.55203c-0.48635,1.11803 0.4821,1.66075 0.4821,1.66075l0.12837,0.06408c-0.61876,0.79907 -1.17606,2.5875 -1.32207,4.17967c-2.76043,-1.89216 -5.81589,-3.35546 -8.33959,-5.57567l-0.05165,-0.0309c1.27931,-3.14843 3.2865,-5.82793 5.96915,-7.21472c0.17154,-0.08868 0.35837,-0.16457 0.55521,-0.22541c0.69598,0.07439 1.3974,0.13172 2.09139,0.19099c2.51445,0.41369 5.35772,0.36833 7.80204,1.08112c3.59102,1.04717 7.67599,3.43656 10.71673,6.71128z" data-paper-data="{&quot;noHover&quot;:false,&quot;origItem&quot;:[&quot;Path&quot;,{&quot;applyMatrix&quot;:true,&quot;segments&quot;:[[[351.83752,163.89042],[3.59102,1.04717],[-2.44431,-0.71278]],[[344.0876,162.80407],[2.51445,0.41369],[-0.69399,-0.05927]],[[342.001,162.60726],[0.69598,0.07439],[-0.19684,0.06085]],[[341.44721,162.83054],[0.17154,-0.08868],[-2.68265,1.38679]],[[335.4862,170.01308],[1.27931,-3.14843],[0,0]],[[335.53784,170.04386],[0,0],[2.5237,2.22021]],[[343.86332,175.58564],[-2.76043,-1.89216],[0.14601,-1.59217]],[[345.11763,171.46632],[-0.61876,0.79907],[0,0]],[344.98877,171.40115],[[344.50242,169.7241],[-0.48635,1.11803],[0.48635,-1.11803]],[345.96148,169.16508],[[346.12964,169.31097],[0,0],[0.73688,0.17095]],[[348.28085,169.9645],[-0.70478,-0.25394],[2.8182,0.46356]],[[356.85386,170.55462],[-2.87011,-0.02036],[1.89337,0]],[[362.53398,170.55462],[-1.89337,0],[-3.04075,-3.27472]]],&quot;closed&quot;:true}]}" fill="#fbff00"/><path d="M364.46911,172.90814c2.37475,3.50993 3.52469,7.85589 2.12019,12.59419c-3.25389,6.11632 -7.377,5.12279 -12.93733,4.87114c-0.3391,-0.01534 -0.68776,-0.02832 -1.0398,-0.03525l0.04157,-0.0982c1.07122,-3.69602 1.89658,-7.52336 2.87036,-11.25353c0,0 0.11789,-0.44604 -0.02442,-0.87301c0.01771,-0.082 0.03547,-0.1672 0.05129,-0.25259c0.13101,-0.70704 0.42851,-1.49306 0.19894,-2.16608c-0.33798,-0.99082 -1.10533,-1.8573 -2.06864,-2.67787c0.01964,0.00081 -0.01569,-0.0759 0.00395,-0.0751c0.20157,0.07397 0.36759,0.07317 0.36759,0.07317c1.08323,0 2.20398,-0.00782 3.3201,-0.00782c1.18208,0.00576 2.38059,-0.00211 3.55146,-0.00211l0.88728,0.00106c0,0 0.00017,0 0.00051,0c0.74301,0 1.49006,0.00455 2.21585,0.00455c0,0 0.20803,0.00095 0.4411,-0.10252z" data-paper-data="{&quot;noHover&quot;:false,&quot;origItem&quot;:[&quot;Path&quot;,{&quot;applyMatrix&quot;:true,&quot;segments&quot;:[[[364.00726,173.05462],[0,0],[-0.72579,0]],[[361.80156,173.05462],[0.74301,0],[-0.00034,0]],[361.80105,173.05462],[[360.91858,173.05462],[0,0],[-1.17087,0]],[[357.38663,173.05462],[1.18208,0.00576],[-1.11612,0]],[[354.07933,173.05462],[1.08323,0],[0,0]],[[353.71262,172.98065],[0.20157,0.07397],[-0.01964,-0.0008]],[[353.65371,172.97823],[0.01964,0.00081],[0.9633,0.82057]],[[355.77683,175.73406],[-0.33798,-0.99082],[0.22957,0.67302]],[[355.5853,177.89157],[0.13101,-0.70704],[-0.01582,0.0854]],[[355.535,178.14265],[0.01771,-0.082],[0.14231,0.42697]],[[355.56222,179.01056],[0,0],[-0.97378,3.73017]],[[352.68421,190.20433],[1.07122,-3.69602],[0,0]],[[352.64256,190.30243],[0,0],[0.35204,0.00693]],[[353.67982,190.33505],[-0.3391,-0.01534],[5.56033,0.25165]],[[366.55021,185.4804],[-3.25389,6.11632],[1.40449,-4.73829]],[[364.44691,172.95114],[2.37475,3.50993],[-0.23308,0.10348]]],&quot;closed&quot;:true}]}" fill="#ff0000"/><path d="M350.25761,190.32654c-5.73925,0.00615 -12.37519,-0.0347 -15.76063,-5.86999c-1.03099,-3.60047 -0.95561,-8.08885 0.14614,-12.08125c3.13189,2.51352 6.90974,4.07575 9.98411,6.72819c0,0 0.21275,0.18444 0.49937,0.2516c1.17406,0.85935 2.96954,1.48264 3.84892,1.76605c1.35562,0.4369 2.64607,0.63569 3.73348,0.39666c-0.65169,2.64245 -1.29962,5.32158 -2.05667,7.93041l-0.38462,0.85327c0,0 -0.00386,0.00878 -0.0101,0.02506z" data-paper-data="{&quot;noHover&quot;:false,&quot;origItem&quot;:[&quot;Path&quot;,{&quot;applyMatrix&quot;:true,&quot;segments&quot;:[[716.62731,376.12548],[[717.506,374.42428],[0,0],[1.74031,-5.21766]],[[722.20641,358.63078],[-1.49812,5.28489],[-2.49975,0.47806]],[[713.62387,357.84248],[3.11633,0.87381],[-2.02152,-0.56682]],[[704.80216,354.37452],[2.69895,1.71871],[-0.6589,-0.13431]],[[703.66986,353.88516],[0,0],[-7.06742,-5.30487]],[[680.85022,340.41459],[7.19964,5.02704],[-2.53272,7.98481]],[[680.5358,364.48029],[-2.37006,-7.20093],[7.78252,11.67059]],[[716.60424,376.17547],[-13.1935,0.01229],[0.01435,-0.03256]]],&quot;closed&quot;:true}]}" fill="#29ff00"/></g></g></g></svg>