<svg version="1.1" xmlns="http://www.w3.org/2000/svg" xmlns:xlink="http://www.w3.org/1999/xlink" width="99.47765" height="68.87349" viewBox="0,0,99.47765,68.87349"><g transform="translate(-270.8474,-135.42746)"><g data-paper-data="{&quot;isPaintingLayer&quot;:true}" fill-rule="nonzero" stroke="none" stroke-linecap="butt" stroke-linejoin="miter" stroke-miterlimit="10" stroke-dasharray="" stroke-dashoffset="0" style="mix-blend-mode: normal"><text transform="translate(297.42001,157.17746) scale(0.5,0.5)" font-size="40" xml:space="preserve" fill="#ffffff" fill-rule="nonzero" stroke="none" stroke-width="1" stroke-linecap="butt" stroke-linejoin="miter" stroke-miterlimit="10" stroke-dasharray="" stroke-dashoffset="0" font-family="Sans Serif" font-weight="normal" text-anchor="start" style="mix-blend-mode: normal"><tspan x="0" dy="0">Item</tspan></text><text transform="translate(271.69179,172.46674) scale(0.35306,0.35306)" font-size="40" xml:space="preserve" fill="#ffea00" fill-rule="nonzero" stroke="none" stroke-width="1" stroke-linecap="butt" stroke-linejoin="miter" stroke-miterlimit="10" stroke-dasharray="" stroke-dashoffset="0" font-family="Sans Serif" font-weight="normal" text-anchor="start" style="mix-blend-mode: normal"><tspan x="0" dy="0">Goofy</tspan><tspan x="0" dy="48px">weapon</tspan></text><text transform="translate(270.96308,201.40908) scale(0.23135,0.23135)" font-size="40" xml:space="preserve" fill="#ffffff" fill-rule="nonzero" stroke="none" stroke-width="1" stroke-linecap="butt" stroke-linejoin="miter" stroke-miterlimit="10" stroke-dasharray="" stroke-dashoffset="0" font-family="Sans Serif" font-weight="normal" text-anchor="start" style="mix-blend-mode: normal"><tspan x="0" dy="0">Use against your foes!</tspan></text><g fill="#efff00" stroke-width="0.5"><path d="M340.80247,161.95655c0.21555,-0.08096 0.43202,-0.15895 0.64957,-0.23363c-0.1664,0.03711 -0.33367,0.07557 -0.50189,0.11538c-0.04611,0.03539 -0.09544,0.07495 -0.14768,0.11825zM347.68529,160.91252c0.29343,0.16474 0.57081,0.47619 0.57081,1.06502c0,1.25 -1.25,1.25 -1.25,1.25c-3.77454,-0.01489 -6.91272,1.65668 -10.16621,3.3221c-0.03964,0.15395 -0.11673,0.31772 -0.24505,0.48881c-0.51827,0.69102 -1.15591,0.5464 -1.50047,0.39106c-1.54689,0.78895 -3.15383,1.80934 -3.9448,3.44309c-0.55685,1.15018 -0.05912,3.48804 -0.1414,4.64795c-0.29362,4.13897 -0.12182,7.12191 0.69538,11.15039c2.2988,4.53652 6.32461,5.16339 11.05031,5.66498c8.56716,0.90933 20.57191,-1.52089 24.04872,-10.30989c0.79143,-2.03913 0.95224,-3.95604 1.01615,-6.1479c0.13759,-4.71839 -1.53067,-10.54757 -5.94399,-13.05758c-1.59345,-0.90625 -4.11237,-1.01066 -5.86446,-1.28719c-2.98692,-0.47143 -5.65052,-0.71061 -8.32499,-0.62085zM333.34213,165.54122l-0.01162,-0.01351c2.00879,-2.38682 4.01169,-4.08182 6.54521,-5.94676c5.78925,-1.51143 10.58416,-1.45531 16.52393,-0.51708c2.08872,0.32993 4.78016,0.50788 6.67501,1.56347c5.2738,2.93795 7.3991,9.70058 7.24235,15.34378c-0.06938,2.4977 -0.31972,4.61543 -1.18423,6.96056c-3.99544,9.89245 -16.83998,12.91382 -26.63597,11.891c-5.80104,-0.6057 -10.39981,-1.76435 -13.154,-7.32903c-0.94833,-4.38603 -1.15027,-7.6746 -0.82612,-12.17929c0.12444,-1.72924 -0.38732,-3.84277 0.36576,-5.49538c0.87676,-1.92403 2.6611,-3.26729 4.45969,-4.27776z"/><path d="M346.51906,172.08263c-0.04736,0.03789 -0.09426,0.07164 -0.14064,0.10157c-0.03129,0.41315 -0.08895,0.81876 -0.25375,1.19376c-2.54467,5.79041 -9.67978,-0.83872 -5.54637,-3.6241c0.58389,-0.39346 1.40563,0.08464 2.10845,0.12696c0,0 1.22572,0.24514 0.98058,1.47087c-0.24514,1.22573 -1.47087,0.98058 -1.47087,0.98058c-1.00965,-0.89819 0.81856,2.29827 1.63374,0.05303c0.11989,-0.33022 0.10915,-0.693 0.14873,-1.04324l-0.40515,-1.01287c-0.06432,-0.15061 -0.09993,-0.31643 -0.09993,-0.49056c0,-0.69036 0.55964,-1.25 1.25,-1.25c0.39906,0 0.75444,0.187 0.9833,0.47815l1.00712,1.2589l-0.34038,0.27231l0.01773,0.04433l-0.14626,0.0585l-1.48325,1.18661l-0.35958,-0.44947l-0.3321,0.13284l-0.09149,-0.22873c0.00328,-0.02901 0.00691,-0.05792 0.01098,-0.08673l0.10459,-2.4967l2.61977,1.56705c0,0 0.78087,0.97609 -0.19522,1.75696z"/><path d="M362.04648,172.50106c-0.40722,0.79919 -1.36446,0.58647 -1.36446,0.58647c-0.71583,-0.16162 -1.4247,-0.3579 -2.14748,-0.48486c-2.92986,-0.51467 -0.57283,2.23154 1.20408,1.83452c0.56994,-0.12734 1.04458,-0.52508 1.54471,-0.8266c0.4065,-0.24507 1.49693,-0.6342 1.10359,-0.89988c-0.11057,-0.07468 -0.22418,-0.14441 -0.34045,-0.20965zM356.19093,170.44371c-0.02432,-0.10453 -0.0379,-0.22123 -0.0379,-0.35149c0,-1.25 1.25,-1.25 1.25,-1.25l0.75005,0.02383c1.93941,0.3854 5.3513,0.6501 6.43805,2.66502c1.4436,2.67656 -2.45171,5.00028 -4.45204,5.37385c-3.64929,0.68153 -8.05851,-4.19527 -3.94817,-6.46121z"/><path d="M355.22412,182.31543c0.12351,-0.35719 0.42563,-0.79404 1.16458,-0.79404c1.25,0 1.25,1.25 1.25,1.25l-0.5,1.25358c-4.50476,3.30182 -11.72535,1.76165 -14.51448,-2.91566c0,0 -0.62017,-1.0853 0.46513,-1.70548c1.08531,-0.62017 1.70548,0.46513 1.70548,0.46513c1.76605,3.28345 7.21532,4.48148 10.42929,2.44646z"/></g></g></g></svg>