<svg version="1.1" xmlns="http://www.w3.org/2000/svg" xmlns:xlink="http://www.w3.org/1999/xlink" width="145.28057" height="71.9165" viewBox="0,0,145.28057,71.9165"><g transform="translate(-247.47623,-135.42746)"><g data-paper-data="{&quot;isPaintingLayer&quot;:true}" fill-rule="nonzero" stroke="none" stroke-linecap="butt" stroke-linejoin="miter" stroke-miterlimit="10" stroke-dasharray="" stroke-dashoffset="0" style="mix-blend-mode: normal"><text transform="translate(297.42001,157.17746) scale(0.5,0.5)" font-size="40" xml:space="preserve" fill="#ffffff" fill-rule="nonzero" stroke="none" stroke-width="1" stroke-linecap="butt" stroke-linejoin="miter" stroke-miterlimit="10" stroke-dasharray="" stroke-dashoffset="0" font-family="Sans Serif" font-weight="normal" text-anchor="start" style="mix-blend-mode: normal"><tspan x="0" dy="0">Item</tspan></text><text transform="translate(271.69178,172.46674) scale(0.35306,0.35306)" font-size="40" xml:space="preserve" fill="#ff0000" fill-rule="nonzero" stroke="none" stroke-width="1" stroke-linecap="butt" stroke-linejoin="miter" stroke-miterlimit="10" stroke-dasharray="" stroke-dashoffset="0" font-family="Sans Serif" font-weight="normal" text-anchor="start" style="mix-blend-mode: normal"><tspan x="0" dy="0">Cursed</tspan><tspan x="0" dy="48px">Dice</tspan></text><text transform="translate(247.59191,204.45208) scale(0.23135,0.23135)" font-size="40" xml:space="preserve" fill="#ffffff" fill-rule="nonzero" stroke="none" stroke-width="1" stroke-linecap="butt" stroke-linejoin="miter" stroke-miterlimit="10" stroke-dasharray="" stroke-dashoffset="0" font-family="Sans Serif" font-weight="normal" text-anchor="start" style="mix-blend-mode: normal"><tspan x="0" dy="0">I wouldn't use this if i were you...</tspan></text><g fill="#ff00ea" stroke-width="0.5"><path d="M332.58099,161.44777c-0.51935,2.5539 -0.80956,5.13608 -1.32472,7.70633c-0.82474,4.11488 -2.03054,8.04844 -3.18925,12.06024c-0.67243,2.32816 -0.96515,4.54655 -1.44628,6.87391c-0.09075,0.439 -0.80338,0.97016 -0.46349,1.26244c0.55926,0.48092 1.47053,0.1268 2.20068,0.2314c4.04107,0.57894 8.06351,0.82377 12.14563,1.03824c4.70046,0.3127 9.30004,0.88285 13.96062,1.53018c1.56391,0.21722 3.12822,0.43471 4.68534,0.69621c0.58846,0.09882 1.1906,0.4519 1.76589,0.29348c0.24982,-0.0688 -0.00582,-0.51821 -0.00893,-0.77732c-0.00728,-0.60738 -0.06335,-1.21611 -0.02224,-1.82214c0.08975,-1.32286 0.6215,-5.05624 0.86881,-6.26965c1.07749,-5.28664 2.15511,-10.33473 2.73583,-15.72456c0.08028,-0.74506 0.15507,-1.49102 0.25884,-2.23318c0.07332,-0.52437 0.47948,-1.48615 -0.04012,-1.5879c-0.86768,-0.16991 -1.76752,-0.053 -2.65128,-0.0795c-9.72168,-1.53224 -19.643,-2.42704 -29.47532,-3.19819zM333.07593,158.17024c9.80386,0.7706 19.69741,1.66212 29.38807,3.19464c1.3114,0.17306 2.76789,-0.10487 3.9342,0.51918c2.74196,1.46713 1.62157,4.75666 1.3775,7.02097c-0.59152,5.48757 -1.68246,10.64261 -2.78277,16.0255c-0.21444,1.04905 -0.72568,4.62797 -0.80805,5.80371c-0.05131,0.73235 0.16807,1.49327 -0.02224,2.20231c-0.27735,1.03332 -0.43558,2.35702 -1.35042,2.91176c-1.50914,0.91512 -4.34864,0.19681 -6.05714,-0.05464c-5.47806,-0.80626 -10.92116,-1.50569 -16.44792,-1.87285c-4.08476,-0.21458 -8.73322,0.05666 -12.68672,-1.11571c-1.42102,-0.42138 -3.19949,-0.42876 -4.16705,-1.55156c-1.0465,-1.2144 0.22578,-6.24798 0.58941,-7.70722c1.25902,-5.05241 2.94406,-9.91753 3.97166,-15.04213c0.49065,-2.44686 0.78861,-4.90137 1.25764,-7.33522c-0.47899,-0.15464 -1.08938,-0.54878 -1.08938,-1.5533c0,-1.65316 1.65316,-1.65316 1.65316,-1.65316l0.24298,0.00188c0.24167,-0.44146 0.78978,-1.07635 1.86885,-0.78205c0.68719,0.18742 0.99754,0.59017 1.12822,0.9879z"/><path d="M337.98616,171.2431c0,-0.91301 0.74014,-1.65316 1.65316,-1.65316c0.91301,0 1.65316,0.74014 1.65316,1.65316c0,0.91301 -0.74014,1.65316 -1.65316,1.65316c-0.91301,0 -1.65316,-0.74014 -1.65316,-1.65316z"/><path d="M351.58513,171.2431c0,-0.91301 0.74014,-1.65316 1.65316,-1.65316c0.91301,0 1.65316,0.74014 1.65316,1.65316c0,0.91301 -0.74014,1.65316 -1.65316,1.65316c-0.91301,0 -1.65316,-0.74014 -1.65316,-1.65316z"/><path d="M343.12884,183.63624c0,-0.91301 0.74014,-1.65316 1.65316,-1.65316c0.91301,0 1.65316,0.74014 1.65316,1.65316c0,0.91301 -0.74014,1.65316 -1.65316,1.65316c-0.91301,0 -1.65316,-0.74014 -1.65316,-1.65316z"/></g></g></g></svg>